<svg width="23" height="25" viewBox="0 0 23 25" fill="none" xmlns="http://www.w3.org/2000/svg">
<path d="M21.7274 7.98892H19.7252C19.3207 7.98892 18.9928 8.31685 18.9928 8.72134C18.9928 9.12583 19.3207 9.45376 19.7252 9.45376H19.9939V12.7688C19.9939 13.0316 19.7801 13.2454 19.5173 13.2454H18.6562C18.5343 12.7833 18.3375 12.3515 18.0795 11.9635V4.45654C18.0795 1.99917 16.0803 0 13.6229 0H8.83686C6.37949 0 4.38027 1.99917 4.38027 4.45654V11.9636C4.12236 12.3516 3.92549 12.7834 3.80361 13.2455H2.94258C2.67978 13.2455 2.46597 13.0316 2.46597 12.7688V9.45381H2.73467C3.13916 9.45381 3.46709 9.12588 3.46709 8.72139C3.46709 8.31689 3.13916 7.98896 2.73467 7.98896H0.732422C0.32793 7.98896 0 8.31689 0 8.72139C0 9.12588 0.32793 9.45381 0.732422 9.45381H1.00112V12.7688C1.00112 13.8394 1.87207 14.7103 2.94258 14.7103H3.68999C3.86645 15.8423 4.8479 16.7112 6.02851 16.7112H8.35976V17.3165C8.35976 18.5378 9.30195 19.5426 10.4975 19.6438V21.7024H9.30644C8.0292 21.7024 6.99009 22.7415 6.99009 24.0187V24.2676C6.99009 24.6721 7.31802 25 7.72251 25C8.127 25 8.45493 24.6721 8.45493 24.2676V24.0188C8.45493 23.5493 8.83691 23.1673 9.30644 23.1673H10.4975V24.2414C10.4975 24.6459 10.8254 24.9738 11.2299 24.9738C11.6344 24.9738 11.9624 24.6459 11.9624 24.2414V23.1673H13.1534C13.6229 23.1673 14.0049 23.5493 14.0049 24.0188V24.2414C14.0049 24.6459 14.3328 24.9738 14.7373 24.9738C15.1418 24.9738 15.4697 24.6459 15.4697 24.2414V24.0188C15.4697 22.7416 14.4306 21.7024 13.1534 21.7024H11.9624V19.6438C13.1579 19.5426 14.1 18.5378 14.1 17.3166V16.7113H16.4313C17.612 16.7113 18.5934 15.8423 18.7699 14.7104H19.5172C20.5877 14.7104 21.4587 13.8394 21.4587 12.7689V9.45386H21.7274C22.1319 9.45386 22.4598 9.12593 22.4598 8.72144C22.4598 8.31694 22.1319 7.98892 21.7274 7.98892ZM8.83691 1.46484H13.623C15.2727 1.46484 16.6147 2.80688 16.6147 4.45654V10.5956C15.9865 10.2375 15.2602 10.0328 14.4869 10.0328H7.97305C7.19971 10.0328 6.47339 10.2376 5.84517 10.5956V4.45654C5.84517 2.80688 7.18725 1.46484 8.83691 1.46484ZM12.6353 17.3165C12.6353 17.797 12.2443 18.188 11.7637 18.188H10.6961C10.2156 18.188 9.82461 17.797 9.82461 17.3165V16.7112H12.6353V17.3165ZM16.4313 15.2464H6.02851C5.5311 15.2464 5.12642 14.8417 5.12642 14.3443C5.12642 12.7747 6.40337 11.4976 7.97305 11.4976H14.4868C16.0564 11.4976 17.3334 12.7746 17.3334 14.3443C17.3334 14.8417 16.9288 15.2464 16.4313 15.2464Z" fill="#911E4F"/>
</svg>
