<svg width="65" height="11" viewBox="0 0 65 11" fill="none" xmlns="http://www.w3.org/2000/svg">
<path fill-rule="evenodd" clip-rule="evenodd" d="M0.679699 0.795479C0.679074 0.630189 0.703562 0.570095 0.890965 0.572844C1.85222 0.586462 2.81447 0.5596 3.7751 0.58946C5.18837 0.633437 6.47259 1.04522 7.52005 2.04346C8.24105 2.73036 8.69419 3.57142 8.8726 4.54717C9.22792 6.49117 8.67983 8.14069 7.19896 9.45951C6.39051 10.1794 5.42175 10.5413 4.35156 10.6277C3.17204 10.7229 1.98915 10.6472 0.808133 10.6729C0.666831 10.676 0.682572 10.5997 0.682697 10.511C0.683697 9.51586 0.685821 2.40465 0.679699 0.795479ZM2.64606 8.77474C2.64531 8.91142 2.67392 8.95515 2.8186 8.95327C3.21239 8.94815 3.60694 8.95215 3.99836 8.9083C4.71312 8.82821 5.38352 8.62319 5.90676 8.09959C6.7863 7.21967 7.10951 6.14947 6.86526 4.93872C6.61926 3.71922 5.91737 2.85992 4.70025 2.48273C4.10743 2.29908 3.491 2.31057 2.87744 2.30283C2.70266 2.30058 2.64206 2.33518 2.64406 2.52709C2.65493 3.56155 2.65193 7.72678 2.64606 8.77474Z" fill="white"/>
<path fill-rule="evenodd" clip-rule="evenodd" d="M60.3072 6.43925C61.3644 7.85315 62.4049 9.24468 63.4706 10.6699C63.3046 10.6699 63.175 10.6699 63.0453 10.6699C62.4508 10.6699 61.8561 10.6607 61.262 10.6754C61.0819 10.6799 60.9912 10.6128 60.8979 10.473C60.0738 9.23781 59.2426 8.00732 58.4135 6.77533C58.4024 6.75871 58.3888 6.74297 58.3813 6.72473C58.3312 6.60167 58.2235 6.60979 58.1281 6.6294C58.0227 6.65114 58.0731 6.74997 58.0728 6.81206C58.0696 8.02106 58.0651 9.23006 58.0757 10.4389C58.0775 10.64 58.0179 10.6791 57.831 10.6744C57.3104 10.6611 56.789 10.6659 56.2682 10.6724C56.1368 10.6742 56.0835 10.6503 56.0836 10.5012C56.088 7.24821 56.0874 3.99526 56.0852 0.742434C56.0852 0.632116 56.097 0.572522 56.2333 0.57552C57.3547 0.598883 58.4775 0.530794 59.5977 0.616749C60.3755 0.676469 61.1072 0.886861 61.7052 1.41709C62.4226 2.05326 62.6246 2.88795 62.5758 3.80723C62.5041 5.15941 61.7672 6.0522 60.4542 6.38503C60.4101 6.39615 60.368 6.41651 60.3072 6.43925ZM58.0706 3.70416C58.0706 4.1508 58.0786 4.5977 58.0662 5.04397C58.0619 5.20051 58.1116 5.23125 58.2553 5.22537C58.548 5.21338 58.8407 5.21975 59.1335 5.18889C59.9906 5.09844 60.4781 4.60307 60.5417 3.74451C60.5929 3.05324 60.2396 2.53039 59.5821 2.31475C59.1497 2.17295 58.7035 2.18844 58.2579 2.1797C58.1123 2.17682 58.0627 2.20855 58.0667 2.36422C58.0781 2.81062 58.0706 3.25739 58.0706 3.70416Z" fill="white"/>
<path fill-rule="evenodd" clip-rule="evenodd" d="M49.2505 0.774498C49.25 0.623076 49.2807 0.5736 49.444 0.574225C51.1804 0.580846 52.9167 0.579847 54.6531 0.575349C54.7883 0.574975 54.8371 0.60146 54.834 0.747885C54.8241 1.21514 54.8242 1.68291 54.834 2.15016C54.837 2.29109 54.7846 2.30996 54.663 2.30946C53.5878 2.30533 52.5124 2.31208 51.4374 2.30221C51.2546 2.30059 51.2181 2.35381 51.2212 2.52534C51.232 3.13291 51.2307 3.74084 51.2216 4.3484C51.2194 4.5002 51.262 4.53693 51.411 4.53606C52.4461 4.52944 53.4813 4.53681 54.5164 4.52819C54.6799 4.52681 54.7113 4.57716 54.7081 4.72733C54.6984 5.1746 54.6986 5.62225 54.7082 6.06952C54.7112 6.21095 54.6708 6.24455 54.532 6.2438C53.5036 6.23768 52.4751 6.24605 51.4467 6.23544C51.255 6.23344 51.2195 6.29403 51.2215 6.46981C51.2307 7.23104 51.2295 7.9924 51.222 8.75376C51.2205 8.90518 51.252 8.95503 51.4154 8.95378C52.4905 8.94554 53.5658 8.95341 54.641 8.94541C54.8015 8.94429 54.8375 8.99002 54.8341 9.14281C54.824 9.60332 54.8272 10.0645 54.8327 10.5252C54.8341 10.6355 54.807 10.673 54.6899 10.6728C52.9268 10.6692 51.1638 10.6678 49.4007 10.6744C49.2401 10.675 49.2529 10.5966 49.253 10.4917C49.2541 8.86196 49.2559 2.38392 49.2505 0.774498Z" fill="white"/>
<path fill-rule="evenodd" clip-rule="evenodd" d="M13.8522 7.75731C14.1178 8.25418 14.4682 8.65885 14.9841 8.88548C15.5385 9.12911 16.1094 9.21406 16.685 8.9567C17.2079 8.72307 17.4904 8.30603 17.5129 7.7382C17.5353 7.17574 17.2343 6.79893 16.747 6.55568C16.187 6.27608 15.5813 6.11004 15.0089 5.86142C14.4496 5.61842 13.9168 5.33731 13.5306 4.83969C13.2946 4.53573 13.1636 4.18815 13.1179 3.81597C12.914 2.15858 13.8217 0.973186 15.1985 0.583637C16.6365 0.176722 17.9316 0.534288 19.0916 1.44594C19.1773 1.51328 19.2067 1.56076 19.1246 1.66358C18.8292 2.03351 18.5405 2.40895 18.2614 2.79112C18.1766 2.90744 18.1396 2.87446 18.0622 2.792C17.7467 2.45517 17.3845 2.18244 16.9151 2.11535C16.3226 2.03064 15.7622 2.10648 15.3498 2.5976C14.9811 3.03662 15.0629 3.58959 15.5287 3.92042C15.9456 4.21652 16.4315 4.36569 16.9016 4.54734C17.3424 4.71776 17.7729 4.90816 18.1849 5.14179C19.0256 5.61842 19.4876 6.31756 19.5479 7.2973C19.6494 8.95145 18.7797 10.3486 17.16 10.7648C15.4317 11.2088 13.7431 10.7169 12.6344 9.08038C12.5887 9.01279 12.5837 8.97331 12.6467 8.91359C13.0481 8.53279 13.4457 8.14799 13.8522 7.75731Z" fill="white"/>
<path fill-rule="evenodd" clip-rule="evenodd" d="M38.6838 0.578496C39.3689 0.578496 40.0231 0.582868 40.6772 0.574748C40.8081 0.573123 40.8592 0.620099 40.9044 0.734665C41.5065 2.25888 43.2415 6.62363 43.508 7.29728C43.6297 7.16298 45.3631 2.76637 46.1803 0.727795C46.213 0.646461 46.2363 0.574747 46.3551 0.575747C47.0225 0.581619 47.6899 0.578621 48.3857 0.578621C48.2269 0.959925 45.3683 7.7428 44.0959 10.7716C44.0456 10.8916 43.9897 10.9308 43.8647 10.926C43.6113 10.9164 43.3572 10.917 43.1038 10.9259C42.991 10.9299 42.94 10.8887 42.8982 10.7872C42.1141 8.88534 39.3631 2.23939 38.7753 0.816747C38.7451 0.744035 38.7187 0.669823 38.6838 0.578496Z" fill="white"/>
<path fill-rule="evenodd" clip-rule="evenodd" d="M27.9515 3.30811C27.5793 2.95205 27.2225 2.65295 26.7963 2.4558C25.1196 1.68045 23.101 2.51327 22.4547 4.29161C21.9569 5.6614 22.1226 6.96386 23.1227 8.07616C23.7915 8.8199 24.675 9.09126 25.6604 9.08089C26.4421 9.07277 27.0889 8.75481 27.6606 8.24969C27.7448 8.17536 27.8262 8.0979 27.908 8.02256C27.9791 8.06142 27.9497 8.12163 27.9498 8.16849C27.9521 8.82965 27.9501 9.49093 27.9527 10.1522C27.9531 10.2525 27.9382 10.3138 27.8293 10.3662C25.8045 11.3412 23.243 10.9553 21.6588 9.33363C20.6785 8.33015 20.1957 7.11865 20.1652 5.71625C20.1136 3.34335 21.6947 1.27404 23.8942 0.609381C25.2437 0.201591 26.5614 0.279677 27.8325 0.917598C27.9009 0.95183 27.9541 0.981439 27.9536 1.07602C27.9497 1.80377 27.9515 2.53126 27.9515 3.30811Z" fill="white"/>
<path fill-rule="evenodd" clip-rule="evenodd" d="M11.9025 10.4504C11.9031 10.6162 11.8785 10.6815 11.6888 10.676C11.155 10.6603 10.6203 10.6665 10.086 10.6734C9.95637 10.6752 9.91651 10.6418 9.91664 10.5079C9.92026 7.25517 9.92051 4.00235 9.91626 0.749648C9.91601 0.603099 9.96449 0.574239 10.0988 0.575988C10.6264 0.583109 11.1542 0.586731 11.6816 0.574488C11.8563 0.570365 11.9045 0.612343 11.9036 0.792376C11.8957 2.40867 11.8967 8.84735 11.9025 10.4504Z" fill="white"/>
<path fill-rule="evenodd" clip-rule="evenodd" d="M63.963 1.37344C64.0584 1.501 64.1524 1.62668 64.2486 1.75537C64.2336 1.75537 64.2218 1.75537 64.2102 1.75537C64.1565 1.75537 64.1029 1.75449 64.0492 1.75587C64.0331 1.75637 64.0248 1.75024 64.0163 1.73762C63.942 1.62606 63.8669 1.51499 63.7921 1.4038C63.7911 1.4023 63.7898 1.40092 63.7892 1.3993C63.7847 1.38806 63.7749 1.3888 63.7663 1.39055C63.7568 1.39255 63.7613 1.40142 63.7613 1.40704C63.7611 1.51611 63.7606 1.62531 63.7616 1.7345C63.7618 1.75262 63.7563 1.75624 63.7395 1.75574C63.6925 1.75462 63.6454 1.75499 63.5984 1.75562C63.5865 1.75574 63.5818 1.75362 63.5818 1.74012C63.5822 1.44652 63.5822 1.1528 63.582 0.859203C63.582 0.849208 63.583 0.843961 63.5954 0.844086C63.6966 0.846209 63.7979 0.840088 63.8991 0.84771C63.9693 0.853082 64.0353 0.872071 64.0894 0.920047C64.1541 0.977392 64.1724 1.05285 64.168 1.13581C64.1615 1.25787 64.095 1.33846 63.9765 1.36856C63.9722 1.36944 63.9683 1.37131 63.963 1.37344ZM63.7609 1.12644C63.7609 1.16679 63.7618 1.20715 63.7606 1.24738C63.7602 1.26149 63.7647 1.26437 63.7777 1.26387C63.8042 1.26274 63.8305 1.26337 63.8569 1.26049C63.9344 1.25237 63.9782 1.20765 63.984 1.13019C63.9886 1.06784 63.9567 1.0205 63.8974 1.00113C63.8584 0.988387 63.818 0.98976 63.7778 0.988885C63.7647 0.988761 63.7601 0.99151 63.7606 1.0055C63.7617 1.04573 63.7609 1.08609 63.7609 1.12644Z" fill="white"/>
<path d="M33.8998 10.9836C36.8455 10.9836 39.2334 8.5871 39.2334 5.63094C39.2334 2.67477 36.8455 0.27832 33.8998 0.27832C30.9541 0.27832 28.5662 2.67477 28.5662 5.63094C28.5662 8.5871 30.9541 10.9836 33.8998 10.9836Z" fill="white"/>
<path d="M33.8998 10.9836C36.8455 10.9836 39.2334 8.5871 39.2334 5.63094C39.2334 2.67477 36.8455 0.27832 33.8998 0.27832C30.9541 0.27832 28.5662 2.67477 28.5662 5.63094C28.5662 8.5871 30.9541 10.9836 33.8998 10.9836Z" fill="white"/>
</svg>
