<svg width="32" height="30" viewBox="0 0 32 30" fill="none" xmlns="http://www.w3.org/2000/svg">
<path d="M25.456 8.46278L20.2591 7.7076L17.9349 2.99837C17.0372 1.17931 14.4414 1.17987 13.544 2.99831L11.2198 7.70754L6.02284 8.46278C4.01528 8.75445 3.21394 11.2232 4.666 12.6388L8.42658 16.3044L7.53885 21.4802C7.19597 23.4797 9.29611 25.0047 11.0912 24.0612L15.7395 21.6174L20.3879 24.0612C22.1804 25.0036 24.283 23.4794 23.9402 21.4802L23.0525 16.3044L26.8131 12.6387C28.2654 11.2227 27.4627 8.75438 25.456 8.46278ZM25.3481 11.1361L21.1925 15.1867C20.9452 15.4278 20.8324 15.7751 20.8907 16.1154L21.8717 21.8351C21.921 22.1224 21.6221 22.3393 21.3642 22.2038L16.2277 19.5034C15.922 19.3427 15.5568 19.3427 15.2511 19.5034L10.1146 22.2038C9.85658 22.3394 9.55784 22.1223 9.60709 21.8351L10.5881 16.1154C10.6464 15.7751 10.5336 15.4278 10.2863 15.1867L6.13074 11.1361C5.92201 10.9326 6.03618 10.5814 6.32459 10.5394L12.0675 9.70495C12.4092 9.65527 12.7046 9.4407 12.8575 9.13102L15.4258 3.92704C15.5547 3.66587 15.9241 3.66569 16.053 3.92711L18.6214 9.13102C18.7742 9.4407 19.0697 9.65533 19.4114 9.70495L25.1543 10.5394C25.4426 10.5814 25.5567 10.9327 25.3481 11.1361Z" fill="#911E4F"/>
<path d="M8.28339 2.15976L7.02849 0.432557C6.68776 -0.0361781 6.03163 -0.140205 5.5629 0.200525C5.0941 0.541133 4.99014 1.19732 5.33081 1.66612L6.5857 3.39326C6.92656 3.86224 7.58269 3.96583 8.0513 3.62529C8.52009 3.28474 8.62406 2.62855 8.28339 2.15976Z" fill="#911E4F"/>
<path d="M4.11911 17.638C3.94014 17.0869 3.3482 16.785 2.79696 16.9643L0.725276 17.6375C0.174156 17.8166 -0.12741 18.4084 0.0516238 18.9596C0.230965 19.5117 0.823892 19.8122 1.37378 19.6333L3.44546 18.9601C3.99664 18.781 4.29821 18.1891 4.11911 17.638Z" fill="#911E4F"/>
<path d="M25.9157 0.20049C25.4469 -0.140117 24.7908 -0.0362754 24.4501 0.432521L23.1952 2.15966C22.8545 2.62845 22.9585 3.28471 23.4273 3.62525C23.8963 3.96598 24.5524 3.86183 24.8929 3.39322L26.1478 1.66608C26.4884 1.19729 26.3845 0.541036 25.9157 0.20049Z" fill="#911E4F"/>
<path d="M30.7536 17.6375L28.6819 16.9644C28.1308 16.785 27.5389 17.0869 27.3598 17.638C27.1807 18.1891 27.4822 18.7811 28.0334 18.9602L30.1051 19.6333C30.655 19.8122 31.2479 19.5117 31.4272 18.9597C31.6063 18.4086 31.3047 17.8166 30.7536 17.6375Z" fill="#911E4F"/>
<path d="M15.7394 25.772C15.1599 25.772 14.6901 26.2418 14.6901 26.8212V28.9508C14.6901 29.5303 15.1599 30.0001 15.7394 30.0001C16.3188 30.0001 16.7886 29.5303 16.7886 28.9508V26.8212C16.7887 26.2417 16.3189 25.772 15.7394 25.772Z" fill="#911E4F"/>
</svg>
