<svg width="196" height="51" viewBox="0 0 196 51" fill="none" xmlns="http://www.w3.org/2000/svg">
<path d="M128.166 12.1148L117.356 38.3888C117.179 38.8238 117.497 39.2993 117.966 39.2993H122.11C122.382 39.2993 122.625 39.1324 122.72 38.8845L125.213 32.5867H137.452L140.137 38.8997C140.243 39.1425 140.48 39.2993 140.742 39.2993H144.911C145.385 39.2993 145.708 38.8086 145.516 38.3736L133.939 12.0996C133.833 11.8619 133.596 11.7051 133.334 11.7051H128.766C128.499 11.7051 128.257 11.867 128.156 12.1148H128.166ZM126.839 28.5348L131.078 17.6134L135.731 28.5348H126.844H126.839Z" fill="white"/>
<path d="M162.645 35.0558C160.677 35.0558 158.9 34.6562 157.326 33.862C155.751 33.0678 154.525 31.9347 153.662 30.4728C152.794 29.0109 152.36 27.3567 152.36 25.5154C152.36 23.6741 152.799 22.0706 153.672 20.5985C154.545 19.1214 155.771 17.9833 157.346 17.1689C158.92 16.3595 160.687 15.9548 162.645 15.9548C164.209 15.9548 165.708 16.1723 167.147 16.6074C168.307 16.9564 169.554 17.4825 170.881 18.1856C171.32 18.4183 171.845 18.0996 171.845 17.6039V14.1186C171.845 13.8656 171.699 13.6279 171.467 13.5166C169.877 12.7578 168.383 12.2115 166.995 11.8827C165.496 11.5286 163.967 11.3516 162.403 11.3516C159.445 11.3516 156.791 11.9485 154.429 13.1473C152.072 14.3462 150.22 16.0509 148.872 18.2615C147.525 20.4721 146.854 22.971 146.854 25.7481C146.854 28.3431 147.505 30.7307 148.817 32.911C150.124 35.0912 151.921 36.7605 154.207 37.9189C156.493 39.0773 159.087 39.659 161.989 39.659C163.987 39.659 165.733 39.4618 167.232 39.0672C168.63 38.6979 170.149 38.096 171.795 37.2613C172.017 37.15 172.158 36.9173 172.158 36.6694V33.1538C172.158 32.658 171.633 32.3444 171.194 32.567C169.529 33.4269 168.121 34.039 166.965 34.4083C165.592 34.8433 164.149 35.0608 162.64 35.0608L162.645 35.0558Z" fill="white"/>
<path d="M182.547 35.1314V27.2907H189.053C189.416 27.2907 189.714 26.9973 189.714 26.6281V23.7801C189.714 23.4159 189.421 23.1174 189.053 23.1174H182.547V15.8686H194.362C194.725 15.8686 195.023 15.5752 195.023 15.2059V12.358C195.023 11.9938 194.73 11.6953 194.362 11.6953H177.884C177.521 11.6953 177.223 11.9887 177.223 12.358V38.6319C177.223 38.9961 177.516 39.2946 177.884 39.2946H194.639C195.003 39.2946 195.3 39.0012 195.3 38.6319V35.784C195.3 35.4198 195.008 35.1213 194.639 35.1213H182.547V35.1314Z" fill="white"/>
<path d="M109.131 23.3194H94.844V12.3677C94.844 12.0035 94.5513 11.7051 94.1829 11.7051H90.1809C89.8175 11.7051 89.5197 11.9985 89.5197 12.3677V38.6417C89.5197 39.0059 89.8125 39.3044 90.1809 39.3044H94.1829C94.5463 39.3044 94.844 39.011 94.844 38.6417V27.6495H109.131V38.6417C109.131 39.0059 109.424 39.3044 109.792 39.3044H113.794C114.158 39.3044 114.455 39.011 114.455 38.6417V12.3677C114.455 12.0035 114.163 11.7051 113.794 11.7051H109.792C109.429 11.7051 109.131 11.9985 109.131 12.3677V23.3194Z" fill="white"/>
<path d="M76.1589 23.3605C75.5382 23.1986 74.9275 23.0519 74.3068 22.9052C70.981 22.111 68.3517 21.4838 68.3517 19.5261C68.3517 17.1385 70.3401 15.9751 74.4329 15.9751C78.1877 15.9751 81.5488 17.4066 83.1284 18.2008C83.5675 18.4234 84.0822 18.1047 84.0822 17.609V14.5384C84.0822 14.0225 83.7845 13.5621 83.3151 13.3497C81.6699 12.6061 78.5056 11.3516 73.8778 11.3516C66.6308 11.3516 62.6388 14.2552 62.6388 19.5261C62.6388 23.2947 65.6769 25.7683 72.2023 27.3213L72.8685 27.4731C77.1329 28.4342 79.4796 28.9603 79.4796 31.2872C79.4796 33.6141 77.0673 34.9799 73.1864 34.904C68.281 34.813 64.9502 33.3511 63.4059 32.4911C62.9669 32.2483 62.4269 32.5721 62.4319 33.0779L62.4622 36.5076C62.4622 37.0236 62.77 37.4788 63.2394 37.6913C64.7332 38.3539 68.3517 39.6641 73.7416 39.6641C80.8473 39.6641 85.0865 36.4823 85.0865 31.1557C85.0865 27.1341 82.4168 24.8022 76.1539 23.3655L76.1589 23.3605Z" fill="white"/>
<path d="M45.9804 17.8161L39.995 15.039C38.1782 14.1942 36.7197 12.7323 35.8769 10.9112L33.1063 4.91182C31.7235 1.91718 28.7308 0 25.4404 0C22.1499 0 19.1572 1.91718 17.7745 4.91182L15.0089 10.9112C14.1661 12.7323 12.7076 14.1942 10.8908 15.039L4.90034 17.8161C3.40652 18.5091 2.18017 19.6068 1.32728 20.9423C0.479436 22.2727 0 23.856 0 25.5C0 28.7982 1.9127 31.7979 4.90034 33.1839L10.8857 35.961C12.7076 36.8007 14.1661 38.2677 15.0089 40.0888L17.7795 46.0932C18.4709 47.5906 19.561 48.8147 20.8933 49.6696C22.2256 50.5245 23.7952 51 25.4404 51C28.7359 51 31.7286 49.0828 33.1063 46.0882L35.8769 40.0837C36.7197 38.2576 38.1782 36.7957 39.995 35.956L45.9804 33.1788C48.9681 31.7928 50.8808 28.7931 50.8808 25.4949C50.8808 22.1917 48.9681 19.192 45.9804 17.8111V17.8161ZM25.4353 36.0369C19.6316 36.0369 14.9231 31.3224 14.9231 25.5051C14.9231 19.6878 19.6266 14.9682 25.4353 14.9682C31.2441 14.9682 35.9425 19.6827 35.9425 25.5051C35.9425 31.3274 31.239 36.0369 25.4353 36.0369Z" fill="white"/>
</svg>
