<svg width="25" height="25" viewBox="0 0 25 25" fill="none" xmlns="http://www.w3.org/2000/svg">
<path d="M17.5718 0H6.69734C3.00443 0 0 3.00457 0 6.69749V17.5719C0 21.265 3.00443 24.2694 6.69734 24.2694H17.5718C21.265 24.2694 24.2694 21.2649 24.2694 17.5719V6.69749C24.2696 3.00457 21.265 0 17.5718 0ZM22.1163 17.5719C22.1163 20.0777 20.0777 22.1161 17.5719 22.1161H6.69734C4.19176 22.1163 2.1533 20.0777 2.1533 17.5719V6.69749C2.1533 4.1919 4.19176 2.1533 6.69734 2.1533H17.5718C20.0775 2.1533 22.1161 4.1919 22.1161 6.69749V17.5719H22.1163Z" fill="white"/>
<path d="M12.1347 5.88086C8.68642 5.88086 5.8811 8.68618 5.8811 12.1345C5.8811 15.5826 8.68642 18.3878 12.1347 18.3878C15.583 18.3878 18.3883 15.5826 18.3883 12.1345C18.3883 8.68618 15.583 5.88086 12.1347 5.88086ZM12.1347 16.2344C9.8739 16.2344 8.0344 14.3952 8.0344 12.1343C8.0344 9.87337 9.87376 8.03402 12.1347 8.03402C14.3957 8.03402 16.235 9.87337 16.235 12.1343C16.235 14.3952 14.3955 16.2344 12.1347 16.2344Z" fill="white"/>
<path d="M18.6506 4.05566C18.2358 4.05566 17.8282 4.22362 17.5352 4.51791C17.2408 4.81076 17.0715 5.21845 17.0715 5.63475C17.0715 6.04976 17.2409 6.45731 17.5352 6.7516C17.8281 7.04445 18.2358 7.21384 18.6506 7.21384C19.0669 7.21384 19.4732 7.04445 19.7675 6.7516C20.0618 6.45731 20.2297 6.04962 20.2297 5.63475C20.2297 5.21845 20.0618 4.81076 19.7675 4.51791C19.4746 4.22362 19.0669 4.05566 18.6506 4.05566Z" fill="white"/>
</svg>
