<svg width="21" height="21" viewBox="0 0 21 21" fill="none" xmlns="http://www.w3.org/2000/svg">
<path d="M4.69613 6.56152H0V20.999H4.69613V6.56152Z" fill="white"/>
<path d="M17.4877 6.73084C17.4378 6.71509 17.3906 6.69802 17.3381 6.68359C17.2751 6.66915 17.2121 6.65734 17.1478 6.64684C16.8984 6.59696 16.6254 6.56152 16.3051 6.56152C13.5673 6.56152 11.8308 8.55259 11.2586 9.32171V6.56152H6.56244V20.999H11.2586V13.124C11.2586 13.124 14.8076 8.18115 16.3051 11.8115C16.3051 15.0521 16.3051 20.999 16.3051 20.999H20.9999V11.2563C20.9999 9.07496 19.505 7.25715 17.4877 6.73084Z" fill="white"/>
<path d="M2.29688 4.59375C3.5654 4.59375 4.59375 3.5654 4.59375 2.29688C4.59375 1.02835 3.5654 0 2.29688 0C1.02835 0 0 1.02835 0 2.29688C0 3.5654 1.02835 4.59375 2.29688 4.59375Z" fill="white"/>
</svg>
