<svg width="19" height="25" viewBox="0 0 19 25" fill="none" xmlns="http://www.w3.org/2000/svg">
<path d="M8.89058 24.6738C9.02642 24.8776 9.25513 25 9.5 25C9.74487 25 9.97358 24.8776 10.1094 24.6738C11.8428 22.0739 14.3959 18.8629 16.175 15.5972C17.5975 12.9861 18.2891 10.7591 18.2891 8.78906C18.2891 3.94277 14.3463 0 9.5 0C4.65371 0 0.710938 3.94277 0.710938 8.78906C0.710938 10.7591 1.40249 12.9861 2.82505 15.5972C4.60283 18.8604 7.16079 22.0792 8.89058 24.6738ZM9.5 1.46484C13.5386 1.46484 16.8242 4.75049 16.8242 8.78906C16.8242 10.508 16.1911 12.5058 14.8886 14.8964C13.3551 17.7113 11.1667 20.5667 9.5 22.9672C7.83354 20.5671 5.64502 17.7115 4.11138 14.8964C2.80894 12.5058 2.17578 10.508 2.17578 8.78906C2.17578 4.75049 5.46143 1.46484 9.5 1.46484Z" fill="#911E4F"/>
<path d="M9.5 13.1836C11.9231 13.1836 13.8945 11.2122 13.8945 8.78906C13.8945 6.36592 11.9231 4.39453 9.5 4.39453C7.07686 4.39453 5.10547 6.36592 5.10547 8.78906C5.10547 11.2122 7.07686 13.1836 9.5 13.1836ZM9.5 5.85938C11.1154 5.85938 12.4297 7.17363 12.4297 8.78906C12.4297 10.4045 11.1154 11.7188 9.5 11.7188C7.88457 11.7188 6.57031 10.4045 6.57031 8.78906C6.57031 7.17363 7.88457 5.85938 9.5 5.85938Z" fill="#911E4F"/>
</svg>
