<svg width="17" height="23" viewBox="0 0 17 23" fill="none" xmlns="http://www.w3.org/2000/svg">
<path d="M7.52527 22.6999C7.65024 22.8874 7.86065 23 8.08594 23C8.31122 23 8.52163 22.8874 8.64661 22.6999C10.2413 20.308 12.5901 17.3539 14.2269 14.3494C15.5356 11.9472 16.1719 9.89836 16.1719 8.08594C16.1719 3.62735 12.5445 0 8.08594 0C3.62735 0 0 3.62735 0 8.08594C0 9.89836 0.636228 11.9472 1.94498 14.3494C3.58054 17.3516 5.93387 20.3129 7.52527 22.6999ZM8.08594 1.34766C11.8014 1.34766 14.8242 4.37045 14.8242 8.08594C14.8242 9.66737 14.2417 11.5053 13.0435 13.7047C11.6326 16.2944 9.6193 18.9214 8.08594 21.1299C6.5528 18.9217 4.53936 16.2946 3.1284 13.7047C1.93016 11.5053 1.34766 9.66737 1.34766 8.08594C1.34766 4.37045 4.37045 1.34766 8.08594 1.34766V1.34766Z" fill="#911E4F"/>
<path d="M8.08594 12.1289C10.3152 12.1289 12.1289 10.3152 12.1289 8.08594C12.1289 5.85664 10.3152 4.04297 8.08594 4.04297C5.85664 4.04297 4.04297 5.85664 4.04297 8.08594C4.04297 10.3152 5.85664 12.1289 8.08594 12.1289ZM8.08594 5.39062C9.57213 5.39062 10.7812 6.59974 10.7812 8.08594C10.7812 9.57213 9.57213 10.7812 8.08594 10.7812C6.59974 10.7812 5.39062 9.57213 5.39062 8.08594C5.39062 6.59974 6.59974 5.39062 8.08594 5.39062Z" fill="#911E4F"/>
</svg>
