<svg width="24" height="29" viewBox="0 0 24 29" fill="none" xmlns="http://www.w3.org/2000/svg">
<path d="M12 0C5.38364 0 0 5.38364 0 12C0 18.4364 5.15345 28.3636 12 28.3636C18.8465 28.3636 24 18.4364 24 12C24 5.38364 18.6164 0 12 0ZM12 26.1818C6.67527 26.1818 2.18182 17.4709 2.18182 12C2.18182 6.58691 6.58582 2.18182 12 2.18182C17.4142 2.18182 21.8182 6.58691 21.8182 12C21.8182 17.4709 17.3247 26.1818 12 26.1818Z" fill="#911E4F"/>
<path d="M12 6.54541C8.99238 6.54541 6.54547 8.99232 6.54547 12C6.54547 15.0076 8.99238 17.4545 12 17.4545C15.0077 17.4545 17.4546 15.0076 17.4546 12C17.4546 8.99232 15.0077 6.54541 12 6.54541ZM12 15.2727C10.1957 15.2727 8.72729 13.8043 8.72729 12C8.72729 10.1956 10.1957 8.72723 12 8.72723C13.8044 8.72723 15.2727 10.1956 15.2727 12C15.2727 13.8043 13.8044 15.2727 12 15.2727Z" fill="#911E4F"/>
</svg>
