<svg width="34" height="26" viewBox="0 0 34 26" fill="none" xmlns="http://www.w3.org/2000/svg">
<path d="M6.01206 25.943V24.2174C6.01206 23.5574 5.61367 23.1252 4.92977 23.1252C4.58782 23.1252 4.21599 23.2391 3.96035 23.6143C3.76116 23.2994 3.47565 23.1252 3.04738 23.1252C2.76187 23.1252 2.47635 23.2123 2.2506 23.5272V23.1821H1.65302V25.943H2.2506V24.4185C2.2506 23.9293 2.50623 23.6981 2.90462 23.6981C3.30301 23.6981 3.50221 23.9561 3.50221 24.4185V25.943H4.09979V24.4185C4.09979 23.9293 4.3853 23.6981 4.75381 23.6981C5.1522 23.6981 5.3514 23.9561 5.3514 24.4185V25.943H6.01206ZM14.8762 23.1821H13.9068V22.3478H13.3092V23.1821H12.7681V23.7283H13.3092V24.9948C13.3092 25.628 13.5649 25.9999 14.2488 25.9999C14.5044 25.9999 14.7899 25.9128 14.9891 25.7989L14.8165 25.2795C14.6438 25.3935 14.4446 25.4236 14.3019 25.4236C14.0164 25.4236 13.9035 25.2494 13.9035 24.9646V23.7283H14.8729V23.1821H14.8762ZM19.949 23.1218C19.6071 23.1218 19.378 23.296 19.2353 23.5239V23.1788H18.6377V25.9396H19.2353V24.385C19.2353 23.9259 19.4345 23.6646 19.8063 23.6646C19.9192 23.6646 20.0619 23.6947 20.1781 23.7216L20.3508 23.1453C20.2312 23.1218 20.0619 23.1218 19.949 23.1218ZM12.2834 23.41C11.9979 23.2089 11.5995 23.1218 11.1712 23.1218C10.4873 23.1218 10.0325 23.4669 10.0325 24.013C10.0325 24.4721 10.3744 24.7334 10.972 24.8172L11.2575 24.8473C11.5696 24.9043 11.7422 24.9914 11.7422 25.1355C11.7422 25.3365 11.5131 25.4806 11.1148 25.4806C10.7164 25.4806 10.401 25.3365 10.2018 25.1924L9.91627 25.6515C10.2283 25.8826 10.6566 25.9966 11.0849 25.9966C11.8817 25.9966 12.3398 25.6213 12.3398 25.1053C12.3398 24.6161 11.968 24.3582 11.4003 24.271L11.1148 24.2409C10.8591 24.2107 10.6599 24.1538 10.6599 23.9829C10.6599 23.7819 10.8591 23.6679 11.1745 23.6679C11.5165 23.6679 11.8584 23.812 12.0311 23.8991L12.2834 23.41ZM28.1824 23.1218C27.8405 23.1218 27.6114 23.296 27.4686 23.5239V23.1788H26.8711V25.9396H27.4686V24.385C27.4686 23.9259 27.6678 23.6646 28.0397 23.6646C28.1525 23.6646 28.2953 23.6947 28.4115 23.7216L28.5841 23.152C28.4679 23.1218 28.2986 23.1218 28.1824 23.1218ZM20.5466 24.5625C20.5466 25.3968 21.1177 25.9999 22.0007 25.9999C22.3991 25.9999 22.6847 25.9128 22.9702 25.685L22.6846 25.1958C22.4556 25.37 22.2298 25.4538 21.9709 25.4538C21.4862 25.4538 21.1442 25.1087 21.1442 24.5625C21.1442 24.0432 21.4862 23.6981 21.9709 23.6713C22.2265 23.6713 22.4556 23.7584 22.6846 23.9293L22.9702 23.4401C22.6847 23.2089 22.3991 23.1252 22.0007 23.1252C21.1177 23.1218 20.5466 23.7283 20.5466 24.5625ZM26.0743 24.5625V23.1821H25.4767V23.5272C25.2775 23.2692 24.992 23.1252 24.6202 23.1252C23.8499 23.1252 23.2524 23.7283 23.2524 24.5625C23.2524 25.3968 23.8499 25.9999 24.6202 25.9999C25.0185 25.9999 25.3041 25.8558 25.4767 25.5978V25.943H26.0743V24.5625ZM23.8798 24.5625C23.8798 24.0734 24.1919 23.6713 24.7065 23.6713C25.1912 23.6713 25.5331 24.0466 25.5331 24.5625C25.5331 25.0517 25.1912 25.4538 24.7065 25.4538C24.1952 25.4236 23.8798 25.0484 23.8798 24.5625ZM16.7287 23.1218C15.932 23.1218 15.3609 23.6981 15.3609 24.5592C15.3609 25.4236 15.932 25.9966 16.7586 25.9966C17.157 25.9966 17.5554 25.8826 17.8708 25.6213L17.5853 25.1891C17.3562 25.3633 17.0707 25.4772 16.7885 25.4772C16.4167 25.4772 16.0481 25.303 15.9618 24.8172H17.9837C17.9837 24.7301 17.9837 24.6731 17.9837 24.586C18.0102 23.6981 17.4956 23.1218 16.7287 23.1218ZM16.7287 23.6411C17.1006 23.6411 17.3562 23.8723 17.4126 24.3012H15.9884C16.0448 23.9293 16.3005 23.6411 16.7287 23.6411ZM31.5754 24.5625V22.0898H30.9778V23.5272C30.7786 23.2692 30.4931 23.1252 30.1212 23.1252C29.351 23.1252 28.7534 23.7283 28.7534 24.5625C28.7534 25.3968 29.351 25.9999 30.1212 25.9999C30.5196 25.9999 30.8051 25.8558 30.9778 25.5978V25.943H31.5754V24.5625ZM29.3809 24.5625C29.3809 24.0734 29.693 23.6713 30.2076 23.6713C30.6923 23.6713 31.0342 24.0466 31.0342 24.5625C31.0342 25.0517 30.6923 25.4538 30.2076 25.4538C29.693 25.4236 29.3809 25.0484 29.3809 24.5625ZM9.37513 24.5625V23.1821H8.77754V23.5272C8.57835 23.2692 8.29284 23.1252 7.92101 23.1252C7.15079 23.1252 6.5532 23.7283 6.5532 24.5625C6.5532 25.3968 7.15079 25.9999 7.92101 25.9999C8.3194 25.9999 8.60491 25.8558 8.77754 25.5978V25.943H9.37513V24.5625ZM7.15411 24.5625C7.15411 24.0734 7.46618 23.6713 7.98076 23.6713C8.46547 23.6713 8.80742 24.0466 8.80742 24.5625C8.80742 25.0517 8.46547 25.4538 7.98076 25.4538C7.46618 25.4236 7.15411 25.0484 7.15411 24.5625Z" fill="white"/>
<path d="M21.063 2.21484H12.086V18.4917H21.063V2.21484Z" fill="#CCCCCC"/>
<path d="M12.6821 10.3531C12.6821 7.04616 14.2225 4.1111 16.5863 2.2147C14.8466 0.834282 12.6522 0 10.2585 0C4.58812 0 0 4.63043 0 10.3531C0 16.0758 4.58812 20.7063 10.2585 20.7063C12.6522 20.7063 14.8466 19.872 16.5863 18.4916C14.2192 16.622 12.6821 13.6601 12.6821 10.3531Z" fill="white"/>
<path d="M33.1726 10.3531C33.1726 16.0758 28.5845 20.7063 22.9141 20.7063C20.5204 20.7063 18.3259 19.872 16.5863 18.4916C18.98 16.5918 20.4905 13.6601 20.4905 10.3531C20.4905 7.04616 18.9501 4.1111 16.5863 2.2147C18.3226 0.834282 20.5171 0 22.9107 0C28.5845 0 33.1726 4.66059 33.1726 10.3531Z" fill="white"/>
</svg>
