<svg width="152" height="50" viewBox="0 0 152 50" fill="none" xmlns="http://www.w3.org/2000/svg">
<path d="M0 12.8584H2.72461L9.03516 32.9502L15.3633 12.8584H17.9648L24.2578 32.9502L30.5859 12.8584H33.3281L25.5938 36.8701H22.957L16.6641 17.2881L10.3535 36.8701H7.69922L0 12.8584Z" fill="white"/>
<path d="M46.407 37.1514C38.989 37.1514 35.28 33.0498 35.28 24.8467C35.28 16.6436 38.989 12.542 46.407 12.542C53.8484 12.542 57.5691 16.6436 57.5691 24.8467C57.5691 33.0498 53.8484 37.1514 46.407 37.1514ZM39.9206 17.3584C38.5495 18.9404 37.864 21.4365 37.864 24.8467C37.864 28.2568 38.5495 30.7529 39.9206 32.335C41.2917 33.917 43.4538 34.708 46.407 34.708C49.3835 34.708 51.5515 33.917 52.9109 32.335C54.282 30.7529 54.9675 28.2568 54.9675 24.8467C54.9675 21.4365 54.282 18.9404 52.9109 17.3584C51.5515 15.7764 49.3835 14.9854 46.407 14.9854C43.4538 14.9854 41.2917 15.7764 39.9206 17.3584Z" fill="white"/>
<path d="M112 36.8701V12.8584H120.824C123.438 12.8584 125.447 13.4561 126.854 14.6514C128.26 15.835 128.963 17.5635 128.963 19.8369C128.963 20.8682 128.799 21.8057 128.471 22.6494C128.143 23.4932 127.768 24.1494 127.346 24.6182C126.936 25.0869 126.443 25.4971 125.869 25.8486C125.295 26.1885 124.826 26.417 124.463 26.5342C124.1 26.6396 123.76 26.7275 123.443 26.7979L130.035 36.8701H126.977L120.719 27.1846H114.602V36.8701H112ZM114.602 24.7412H120.684C121.879 24.7412 122.875 24.6064 123.672 24.3369C124.48 24.0557 125.066 23.6689 125.43 23.1768C125.793 22.6846 126.039 22.1982 126.168 21.7178C126.297 21.2373 126.361 20.6748 126.361 20.0303C126.361 19.374 126.297 18.8057 126.168 18.3252C126.039 17.8447 125.793 17.3584 125.43 16.8662C125.066 16.374 124.48 15.9932 123.672 15.7236C122.875 15.4424 121.879 15.3018 120.684 15.3018H114.602V24.7412Z" fill="white"/>
<path d="M133.464 36.8701V12.8584H136.065V25.2334L147.175 12.8584H150.673L140.372 24.0908L151.499 36.8701H148.089L138.684 25.9189L136.065 28.8018V36.8701H133.464Z" fill="white"/>
<path d="M71.6234 22.0186C74.4614 23.9107 78.3161 24.4583 81.5939 24.4583C86.1746 24.4583 89.6558 23.4957 92.0292 21.5622C94.4067 19.6328 95.5933 17.0977 95.5933 13.9567C95.5933 10.3303 93.6972 6.92796 90.4068 5.28903C89.3446 4.75793 88.2576 4.33886 87.0999 4.06086C85.4236 3.65839 83.5897 3.45508 81.5939 3.45508C77.0132 3.45508 73.532 4.42184 71.1587 6.35122C68.7812 8.28475 67.5945 10.8199 67.5945 13.9567C67.5945 15.8239 67.943 17.4254 68.6443 18.7615C69.3662 20.139 70.3994 21.2012 71.6234 22.0186ZM78.3161 6.76614C79.1003 5.40935 80.1915 4.72888 81.5939 4.72888C82.9964 4.72888 84.0876 5.40935 84.8718 6.76614C85.656 8.12293 86.0502 10.5212 86.0502 13.9567C86.0502 17.3923 85.656 19.7905 84.8718 21.1473C84.0876 22.5041 82.9964 23.1845 81.5939 23.1845C80.1915 23.1845 79.1003 22.5082 78.3161 21.1473C77.5319 19.7905 77.1377 17.3923 77.1377 13.9567C77.1377 10.5212 77.5277 8.12293 78.3161 6.76614Z" fill="white"/>
<path d="M95.4352 30.0938C93.6303 28.2474 91.1408 27.3263 87.9583 27.3263H75.8675C73.9589 27.3263 72.6312 27.1354 71.8885 26.7537C71.2993 26.4508 70.8304 25.9487 70.7848 25.26C70.7474 24.704 71.0171 24.2849 71.3283 23.8658C69.2869 23.6916 67.0878 24.8533 66.4198 26.8242C65.507 29.5212 66.2829 32.5045 68.5442 34.2596C70.2412 35.5749 72.681 36.2346 75.8634 36.2346H87.9542C93.0453 36.2346 95.5929 37.6121 95.5929 40.3714C95.5929 42.5331 94.3937 44.3504 91.9955 45.811C89.3317 47.4375 86.1825 48.1968 83.0872 48.3793C79.7595 48.5743 76.7015 48.0557 73.6145 46.8483C74.8634 45.923 75.6435 44.3878 75.631 42.8318C75.6186 41.2759 74.8054 39.7448 73.5108 38.8818C72.2204 38.0188 70.4819 37.8528 69.0587 38.4793C68.0961 38.9025 67.2953 39.6577 66.7476 40.5539C66.2206 41.417 65.9136 42.4377 66.0215 43.4459C66.146 44.6077 66.8181 45.6657 67.6978 46.4375C70.2288 48.6739 74.2494 49.3336 77.494 49.6905C81.1495 50.093 84.7219 49.7984 88.3069 49.0473C91.2611 48.4291 94.2319 47.0391 96.1281 44.6118C97.5928 42.7364 98.1405 40.1598 98.1405 37.8279C98.1405 34.5168 97.2401 31.9402 95.4352 30.0938Z" fill="white"/>
<path d="M102.458 10.7853C104.967 9.84717 106.241 7.05258 105.303 4.54341C104.364 2.03424 101.57 0.760668 99.0607 1.69881C96.5515 2.63695 95.278 5.43154 96.2161 7.94071C97.1542 10.4499 99.9488 11.7235 102.458 10.7853Z" fill="white"/>
</svg>
