<svg width="136" height="30" viewBox="0 0 136 30" fill="none" xmlns="http://www.w3.org/2000/svg">
<path d="M0 12.2989C0 10.3065 0.304812 8.54406 0.914436 7.01149C1.54946 5.47893 2.40039 4.20179 3.46724 3.18008C4.55948 2.13282 5.82953 1.341 7.27739 0.804596C8.75064 0.268199 10.3382 0 12.0401 0C13.7419 0 15.3168 0.268199 16.7647 0.804596C18.2379 1.341 19.5207 2.13282 20.6129 3.18008C21.7052 4.20179 22.5561 5.47893 23.1657 7.01149C23.8007 8.54406 24.1182 10.3065 24.1182 12.2989C24.1182 14.802 23.661 16.9349 22.7466 18.6973C21.8322 20.4342 20.5875 21.8008 19.0126 22.7969C19.3937 22.9757 19.8382 23.1673 20.3462 23.3716C20.8796 23.576 21.4257 23.7803 21.9846 23.9847C22.5688 24.189 23.1657 24.3806 23.7753 24.5594C24.385 24.7637 24.9565 24.9425 25.4899 25.0958C25.5153 25.249 25.528 25.3768 25.528 25.4789C25.528 25.6066 25.528 25.7216 25.528 25.8238C25.528 27.2797 25.147 28.3397 24.385 29.0038C23.6483 29.6679 22.6704 30 21.4511 30C20.2827 30 19.0761 29.6679 17.8315 29.0038C16.5869 28.3653 15.3168 27.433 14.0213 26.2069L12.3449 24.636H12.0401C10.3128 24.636 8.71254 24.3678 7.23928 23.8314C5.76603 23.2695 4.49598 22.4649 3.42913 21.4176C2.36229 20.3704 1.52406 19.0805 0.914436 17.5479C0.304812 16.0153 0 14.2656 0 12.2989ZM6.85827 12.2989C6.85827 14.6232 7.32819 16.3602 8.26802 17.5096C9.20786 18.659 10.4652 19.2337 12.0401 19.2337C13.6403 19.2337 14.9104 18.659 15.8502 17.5096C16.7901 16.3602 17.26 14.6232 17.26 12.2989C17.26 10 16.7901 8.27586 15.8502 7.12644C14.9358 5.97701 13.6784 5.4023 12.0782 5.4023C10.5033 5.4023 9.23326 5.97701 8.26802 7.12644C7.32819 8.25032 6.85827 9.97446 6.85827 12.2989Z" fill="white"/>
<path d="M34.8658 4.29119C34.8658 3.19285 35.1834 2.32439 35.8184 1.68582C36.4534 1.04725 37.317 0.727969 38.4093 0.727969H50.9828C51.1606 1.00894 51.313 1.37931 51.44 1.83908C51.5924 2.29885 51.6686 2.78416 51.6686 3.29502C51.6686 4.26564 51.4527 4.9553 51.0209 5.36398C50.6145 5.77267 50.0683 5.97701 49.3825 5.97701H41.3431V9.54023H49.9159C50.0937 9.8212 50.2461 10.1916 50.3731 10.6513C50.5256 11.0856 50.6018 11.5581 50.6018 12.069C50.6018 13.0396 50.3986 13.7292 49.9921 14.1379C49.5857 14.5466 49.0396 14.751 48.3538 14.751H41.3431V18.7739H51.1352C51.313 19.0549 51.4654 19.4253 51.5924 19.8851C51.7448 20.3448 51.821 20.8301 51.821 21.341C51.821 22.3116 51.6051 23.014 51.1733 23.4483C50.7669 23.857 50.2207 24.0613 49.5349 24.0613H38.4093C37.317 24.0613 36.4534 23.742 35.8184 23.1034C35.1834 22.4649 34.8658 21.5964 34.8658 20.4981V4.29119Z" fill="white"/>
<path d="M69.2277 16.4368V23.7931C68.9483 23.8697 68.5038 23.9464 67.8942 24.023C67.31 24.0996 66.7257 24.1379 66.1415 24.1379C65.5573 24.1379 65.0366 24.0868 64.5794 23.9847C64.1475 23.908 63.7792 23.7548 63.4744 23.5249C63.195 23.295 62.9791 22.9757 62.8267 22.567C62.6743 22.1584 62.5981 21.622 62.5981 20.9579V2.91188C62.5981 2.37548 62.7378 1.96679 63.0172 1.68582C63.322 1.37931 63.7284 1.13665 64.2364 0.957854C65.1001 0.65134 66.1034 0.434225 67.2465 0.306511C68.3895 0.153255 69.6087 0.0766269 70.9042 0.0766269C74.4095 0.0766269 77.0512 0.817368 78.8293 2.29885C80.6074 3.78033 81.4964 5.78544 81.4964 8.31417C81.4964 9.89783 81.09 11.2516 80.2772 12.3755C79.4643 13.4994 78.4991 14.3678 77.3814 14.9808C78.2959 16.2324 79.1976 17.4074 80.0867 18.5057C80.9757 19.6041 81.6742 20.6003 82.1822 21.4943C81.9282 22.3882 81.4583 23.0779 80.7725 23.5632C80.1121 24.023 79.3627 24.2529 78.5245 24.2529C77.9657 24.2529 77.4831 24.189 77.0766 24.0613C76.6702 23.9336 76.3146 23.7548 76.0098 23.5249C75.705 23.295 75.4256 23.014 75.1716 22.682C74.9175 22.3499 74.6762 21.9923 74.4476 21.6092L71.2471 16.4368H69.2277ZM71.6281 11.341C72.5934 11.341 73.3554 11.0983 73.9142 10.613C74.473 10.1022 74.7524 9.36143 74.7524 8.3908C74.7524 7.42018 74.4349 6.69221 73.7999 6.2069C73.1903 5.69604 72.2123 5.44061 70.8661 5.44061C70.4851 5.44061 70.1803 5.45338 69.9517 5.47893C69.723 5.50447 69.469 5.54278 69.1896 5.59387V11.341H71.6281Z" fill="white"/>
<path d="M96.8656 0.727969C97.145 0.676883 97.5895 0.613025 98.1992 0.536398C98.8088 0.434227 99.393 0.383141 99.9518 0.383141C100.536 0.383141 101.044 0.434227 101.476 0.536398C101.933 0.613025 102.314 0.766282 102.619 0.996167C102.924 1.22605 103.152 1.54534 103.305 1.95402C103.457 2.36271 103.533 2.8991 103.533 3.56322V17.7395C103.533 20.0128 102.886 21.7241 101.59 22.8736C100.295 23.9974 98.3897 24.5594 95.875 24.5594C94.5541 24.5594 93.4873 24.355 92.6744 23.9464C92.0902 23.6654 91.6584 23.2822 91.379 22.7969C91.125 22.3116 90.998 21.7625 90.998 21.1494C90.998 20.6386 91.0615 20.1916 91.1885 19.8084C91.3409 19.4253 91.5187 19.1188 91.7219 18.8889C92.2045 18.9911 92.6109 19.0677 92.9411 19.1188C93.2968 19.1443 93.6778 19.1571 94.0842 19.1571C95.0748 19.1571 95.7861 18.9144 96.2179 18.4291C96.6497 17.9183 96.8656 17.1775 96.8656 16.2069V0.727969Z" fill="white"/>
<path d="M120.15 1.41763C120.582 1.1622 121.229 0.919539 122.093 0.689654C122.982 0.459769 123.871 0.344825 124.76 0.344825C126.03 0.344825 127.148 0.536398 128.113 0.919541C129.104 1.27714 129.739 1.85185 130.018 2.64368C130.475 3.9719 130.971 5.51724 131.504 7.27969C132.037 9.04214 132.571 10.8685 133.104 12.7586C133.638 14.6232 134.158 16.4751 134.666 18.3142C135.174 20.1277 135.619 21.7369 136 23.1418C135.695 23.4994 135.238 23.7803 134.628 23.9847C134.019 24.2146 133.295 24.3295 132.457 24.3295C131.847 24.3295 131.326 24.2784 130.894 24.1762C130.488 24.0741 130.145 23.9208 129.866 23.7165C129.612 23.5121 129.396 23.2439 129.218 22.9119C129.066 22.5798 128.926 22.1967 128.799 21.7624L128.113 19.1188H121.217C121.013 19.8851 120.81 20.6769 120.607 21.4943C120.404 22.3116 120.201 23.1034 119.997 23.8697C119.642 23.9974 119.261 24.0996 118.854 24.1762C118.473 24.2784 118.003 24.3295 117.445 24.3295C116.149 24.3295 115.184 24.1124 114.549 23.6782C113.939 23.2184 113.634 22.5926 113.634 21.8008C113.634 21.4432 113.685 21.0856 113.787 20.728C113.888 20.3704 114.003 19.9489 114.13 19.4636C114.308 18.7739 114.549 17.9183 114.854 16.8966C115.184 15.8748 115.539 14.7765 115.921 13.6015C116.302 12.401 116.708 11.175 117.14 9.92337C117.572 8.67177 117.978 7.49681 118.359 6.39847C118.74 5.27458 119.083 4.27841 119.388 3.40996C119.718 2.5415 119.972 1.87739 120.15 1.41763ZM124.722 6.36015C124.366 7.43295 123.96 8.63346 123.503 9.96169C123.071 11.2644 122.677 12.5926 122.322 13.9464H127.046C126.691 12.567 126.322 11.2261 125.941 9.92337C125.586 8.59515 125.255 7.40741 124.951 6.36015H124.722Z" fill="white"/>
</svg>
