<svg width="67" height="46" viewBox="0 0 67 46" fill="none" xmlns="http://www.w3.org/2000/svg">
<path d="M37.8703 10.9517C39.0263 9.79088 39.7447 8.18761 39.7447 6.41783C39.7447 2.87351 36.8712 0 33.3269 0C31.0861 0 29.1165 1.15131 27.97 2.89254C27.6655 3.19702 2.11787 34.6867 1.88 35.0483C0.723933 36.2091 0.0055542 37.8124 0.0055542 39.5822C0.0055542 43.1265 2.87907 46 6.42338 46C8.66415 46 10.6337 44.8487 11.7803 43.1075C12.0848 42.803 37.6324 11.3133 37.8703 10.9517Z" fill="white"/>
<path d="M52.6513 25.8901C53.8121 24.7292 54.5305 23.126 54.5305 21.3514C54.5305 17.8071 51.657 14.9336 48.1127 14.9336C45.8719 14.9336 43.9023 16.0849 42.751 17.8261C42.4418 18.1354 29.0257 34.6723 28.7831 35.0387C27.6222 36.1995 26.9039 37.8028 26.9039 39.5773C26.9039 43.1216 29.7774 45.9951 33.3217 45.9951C35.5625 45.9951 37.5321 44.8438 38.6834 43.1026C38.9926 42.7934 52.4087 26.2564 52.6513 25.8901Z" fill="white"/>
<path d="M66.6527 6.41783C66.6527 9.96215 63.7792 12.8357 60.2348 12.8357C56.6905 12.8357 53.817 9.96215 53.817 6.41783C53.817 2.87351 56.6905 0 60.2348 0C63.7792 0 66.6527 2.87351 66.6527 6.41783Z" fill="white"/>
<path d="M12.8357 6.41783C12.8357 9.96215 9.96215 12.8357 6.41783 12.8357C2.87351 12.8357 0 9.96215 0 6.41783C0 2.87351 2.87351 0 6.41783 0C9.96215 0 12.8357 2.87351 12.8357 6.41783Z" fill="white"/>
</svg>
