<svg width="219" height="47" viewBox="0 0 219 47" fill="none" xmlns="http://www.w3.org/2000/svg">
<path d="M90.2003 11.532V12.1465C89.7906 12.2899 89.3399 12.6074 88.8483 13.0991C88.3567 13.5907 87.947 14.3793 87.6193 15.465L82.0578 33.3785C81.9349 33.3785 81.8017 33.3682 81.6583 33.3477C81.5354 33.3477 81.4023 33.3477 81.2589 33.3477C81.136 33.3477 81.0029 33.3477 80.8595 33.3477C80.7366 33.3682 80.6137 33.3785 80.4907 33.3785L73.9768 13.8979C73.7514 13.2015 73.4851 12.7406 73.1779 12.5153C72.8911 12.2899 72.5941 12.167 72.2868 12.1465V11.532C72.7784 11.5525 73.3725 11.573 74.0689 11.5935C74.7859 11.614 75.4926 11.6242 76.1891 11.6242C77.0494 11.6242 77.8585 11.614 78.6164 11.5935C79.3744 11.573 79.9889 11.5525 80.46 11.532V12.1465C79.825 12.167 79.3334 12.2387 78.9852 12.3616C78.6369 12.464 78.4321 12.6996 78.3706 13.0683C78.3297 13.4166 78.4321 13.9696 78.6779 14.7276L83.1025 28.3393L82.488 29.3226L86.1751 17.6773C86.6258 16.2844 86.8306 15.1885 86.7896 14.3896C86.7692 13.5907 86.5336 13.0274 86.0829 12.6996C85.6323 12.3514 84.987 12.167 84.1472 12.1465V11.532C84.8232 11.5525 85.4582 11.573 86.0522 11.5935C86.6667 11.614 87.2813 11.6242 87.8958 11.6242C88.3669 11.6242 88.7869 11.614 89.1556 11.5935C89.5448 11.573 89.893 11.5525 90.2003 11.532ZM68.446 11.532V12.1465C67.9749 12.1875 67.6471 12.3207 67.4628 12.546C67.2784 12.7713 67.1965 13.0683 67.217 13.4371C67.2579 13.7853 67.3603 14.2155 67.5242 14.7276L72.2254 28.6773L71.4265 29.6606L75.4823 17.4315L75.9432 18.2304L70.9963 33.3785C70.8734 33.3785 70.7402 33.3682 70.5969 33.3477C70.474 33.3477 70.3408 33.3477 70.1974 33.3477C70.0745 33.3477 69.9414 33.3477 69.798 33.3477C69.6751 33.3682 69.5522 33.3785 69.4293 33.3785L62.6695 14.113C62.4032 13.3551 62.0754 12.843 61.6862 12.5767C61.3175 12.3104 60.9795 12.167 60.6722 12.1465V11.532C61.2048 11.5525 61.8501 11.573 62.608 11.5935C63.3659 11.614 64.1034 11.6242 64.8203 11.6242C65.5782 11.6242 66.2747 11.614 66.9097 11.5935C67.5447 11.573 68.0568 11.5525 68.446 11.532Z" fill="white"/>
<path d="M95.9439 16.9706C97.3574 16.9706 98.6069 17.2574 99.6926 17.8309C100.799 18.384 101.669 19.2751 102.304 20.5041C102.96 21.7332 103.288 23.3514 103.288 25.3589C103.288 27.3663 102.96 28.9846 102.304 30.2136C101.669 31.4427 100.799 32.3338 99.6926 32.8868C98.6069 33.4399 97.3574 33.7164 95.9439 33.7164C94.5305 33.7164 93.2707 33.4399 92.1646 32.8868C91.0585 32.3338 90.1879 31.4427 89.5529 30.2136C88.9179 28.9846 88.6003 27.3663 88.6003 25.3589C88.6003 23.3514 88.9179 21.7332 89.5529 20.5041C90.1879 19.2751 91.0585 18.384 92.1646 17.8309C93.2707 17.2574 94.5305 16.9706 95.9439 16.9706ZM95.9439 17.5851C94.9812 17.5851 94.1925 18.1996 93.578 19.4287C92.984 20.6373 92.687 22.614 92.687 25.3589C92.687 28.1038 92.984 30.0805 93.578 31.2891C94.1925 32.4976 94.9812 33.1019 95.9439 33.1019C96.8862 33.1019 97.6646 32.4976 98.2791 31.2891C98.8937 30.0805 99.2009 28.1038 99.2009 25.3589C99.2009 22.614 98.8937 20.6373 98.2791 19.4287C97.6646 18.1996 96.8862 17.5851 95.9439 17.5851Z" fill="white"/>
<path d="M114.89 16.9706C115.525 16.9706 116.047 17.1037 116.457 17.37C116.887 17.6363 117.204 17.9743 117.409 18.384C117.614 18.7937 117.716 19.2238 117.716 19.6745C117.716 20.3505 117.512 20.9138 117.102 21.3645C116.713 21.8151 116.19 22.0404 115.535 22.0404C114.92 22.0404 114.418 21.8766 114.029 21.5488C113.64 21.2211 113.445 20.7704 113.445 20.1968C113.445 19.6847 113.568 19.2546 113.814 18.9063C114.081 18.5581 114.378 18.2816 114.705 18.0767C114.48 17.9538 114.224 17.9129 113.937 17.9538C113.445 17.9948 112.995 18.1689 112.585 18.4762C112.175 18.7834 111.827 19.1624 111.54 19.613C111.254 20.0637 111.028 20.5451 110.864 21.0572C110.721 21.5693 110.649 22.0609 110.649 22.5321V30.1215C110.649 31.1252 110.905 31.8012 111.418 32.1494C111.93 32.4772 112.677 32.641 113.661 32.641V33.2863C113.189 33.2658 112.503 33.2453 111.602 33.2248C110.721 33.1839 109.799 33.1634 108.837 33.1634C108.038 33.1634 107.239 33.1839 106.44 33.2248C105.661 33.2453 105.078 33.2658 104.688 33.2863V32.641C105.446 32.641 105.979 32.4874 106.286 32.1801C106.614 31.8729 106.778 31.2891 106.778 30.4287V20.7499C106.778 19.8281 106.624 19.1522 106.317 18.722C106.03 18.2713 105.487 18.046 104.688 18.046V17.4008C105.344 17.4622 105.979 17.4929 106.594 17.4929C107.351 17.4929 108.068 17.4622 108.744 17.4008C109.441 17.3188 110.076 17.2062 110.649 17.0628V20.2583C110.895 19.6847 111.213 19.1522 111.602 18.6605C112.012 18.1689 112.493 17.7695 113.046 17.4622C113.62 17.1345 114.234 16.9706 114.89 16.9706Z" fill="white"/>
<path d="M123.203 9.22754V30.4287C123.203 31.2891 123.346 31.8729 123.633 32.1801C123.919 32.4874 124.411 32.641 125.108 32.641V33.2863C124.759 33.2658 124.227 33.2453 123.51 33.2248C122.793 33.1839 122.066 33.1634 121.328 33.1634C120.57 33.1634 119.792 33.1839 118.993 33.2248C118.215 33.2453 117.631 33.2658 117.242 33.2863V32.641C118 32.641 118.532 32.4874 118.839 32.1801C119.167 31.8729 119.331 31.2891 119.331 30.4287V12.9147C119.331 11.9929 119.177 11.3169 118.87 10.8868C118.583 10.4361 118.041 10.2108 117.242 10.2108V9.56553C117.897 9.62698 118.532 9.65771 119.147 9.65771C119.925 9.65771 120.652 9.62698 121.328 9.56553C122.004 9.48359 122.629 9.37093 123.203 9.22754ZM133.158 17.4008V18.0153C132.543 18.1382 131.949 18.3738 131.376 18.722C130.802 19.0497 130.239 19.5106 129.686 20.1047L126.644 23.2695L126.982 22.5935L132.39 31.0433C132.677 31.4529 132.943 31.8012 133.189 32.088C133.455 32.3542 133.783 32.5386 134.172 32.641V33.2863C133.906 33.2658 133.486 33.2453 132.912 33.2248C132.339 33.1839 131.765 33.1634 131.191 33.1634C130.495 33.1634 129.778 33.1839 129.041 33.2248C128.324 33.2453 127.781 33.2658 127.412 33.2863V32.641C127.822 32.641 128.098 32.5488 128.242 32.3645C128.406 32.1596 128.385 31.9036 128.18 31.5963L124.985 26.2192C124.698 25.7686 124.421 25.4818 124.155 25.3589C123.889 25.2155 123.53 25.1438 123.08 25.1438V24.5293C123.592 24.4883 124.012 24.3961 124.339 24.2527C124.688 24.1093 125.015 23.884 125.323 23.5767L127.627 21.2723C128.303 20.5963 128.641 20.0227 128.641 19.5516C128.662 19.0805 128.447 18.722 127.996 18.4762C127.566 18.2099 127.002 18.0562 126.306 18.0153V17.4008C126.859 17.4212 127.474 17.452 128.149 17.4929C128.825 17.5134 129.399 17.5237 129.87 17.5237C130.239 17.5237 130.628 17.5237 131.038 17.5237C131.468 17.5032 131.867 17.4827 132.236 17.4622C132.625 17.4417 132.933 17.4212 133.158 17.4008Z" fill="white"/>
<path d="M148.633 11.1633C149.78 11.1633 150.661 11.2862 151.275 11.532C151.89 11.7778 152.423 12.0441 152.873 12.3309C153.119 12.4743 153.314 12.587 153.457 12.6689C153.621 12.7303 153.774 12.7611 153.918 12.7611C154.123 12.7611 154.266 12.6484 154.348 12.4231C154.45 12.1978 154.532 11.8598 154.594 11.4091H155.301C155.28 11.7983 155.249 12.249 155.208 12.7611C155.188 13.2732 155.167 13.9594 155.147 14.8197C155.147 15.6596 155.147 16.776 155.147 18.1689H154.44C154.379 17.1242 154.143 16.1205 153.734 15.1577C153.344 14.195 152.781 13.4063 152.044 12.7918C151.327 12.1568 150.405 11.8393 149.278 11.8393C148.274 11.8393 147.435 12.1363 146.759 12.7303C146.103 13.3244 145.775 14.1233 145.775 15.127C145.775 15.9873 145.99 16.7145 146.421 17.3086C146.851 17.8821 147.455 18.4454 148.233 18.9985C149.032 19.5311 149.975 20.1456 151.06 20.8421C152.064 21.4976 152.965 22.1531 153.764 22.8086C154.563 23.4436 155.188 24.1503 155.639 24.9287C156.11 25.7071 156.345 26.6596 156.345 27.7863C156.345 29.1177 156.018 30.2239 155.362 31.1047C154.707 31.9855 153.826 32.641 152.72 33.0712C151.613 33.5014 150.405 33.7164 149.094 33.7164C147.885 33.7164 146.922 33.5935 146.206 33.3477C145.509 33.1019 144.905 32.8459 144.393 32.5796C143.942 32.2928 143.594 32.1494 143.348 32.1494C143.143 32.1494 142.99 32.2621 142.887 32.4874C142.805 32.7127 142.733 33.0507 142.672 33.5014H141.965C142.006 33.0302 142.027 32.4771 142.027 31.8421C142.047 31.2071 142.057 30.3878 142.057 29.384C142.078 28.3598 142.088 27.0693 142.088 25.5125H142.795C142.877 26.8235 143.102 28.0526 143.471 29.1997C143.86 30.3263 144.444 31.2379 145.222 31.9343C146.021 32.6308 147.076 32.979 148.387 32.979C149.104 32.979 149.749 32.8561 150.323 32.6103C150.917 32.344 151.388 31.9446 151.736 31.412C152.085 30.8589 152.259 30.1624 152.259 29.3226C152.259 28.4827 152.064 27.7453 151.675 27.1103C151.286 26.4753 150.743 25.8812 150.046 25.3282C149.35 24.7751 148.531 24.2118 147.588 23.6382C146.625 23.0237 145.724 22.3989 144.884 21.7639C144.044 21.1289 143.368 20.4119 142.856 19.613C142.365 18.7937 142.119 17.8104 142.119 16.6633C142.119 15.3933 142.426 14.3588 143.041 13.56C143.655 12.7406 144.454 12.1363 145.437 11.7471C146.441 11.3579 147.506 11.1633 148.633 11.1633Z" fill="white"/>
<path d="M163.668 17.0935V35.8673C163.668 36.7891 163.914 37.4036 164.406 37.7109C164.918 38.0386 165.614 38.2025 166.495 38.2025V38.8478C166.004 38.8273 165.307 38.7965 164.406 38.7556C163.525 38.7351 162.583 38.7248 161.579 38.7248C160.883 38.7248 160.186 38.7351 159.49 38.7556C158.793 38.7965 158.261 38.8273 157.892 38.8478V38.2025C158.588 38.2025 159.08 38.0591 159.367 37.7723C159.654 37.4855 159.797 36.953 159.797 36.1746V20.7807C159.797 19.8589 159.654 19.1829 159.367 18.7527C159.08 18.3021 158.527 18.0767 157.708 18.0767V17.4315C158.363 17.4929 158.998 17.5237 159.613 17.5237C160.391 17.5237 161.118 17.4929 161.794 17.4315C162.47 17.3495 163.095 17.2369 163.668 17.0935ZM168.492 16.9706C169.558 16.9706 170.51 17.2676 171.35 17.8616C172.19 18.4352 172.845 19.2853 173.317 20.4119C173.808 21.5386 174.054 22.952 174.054 24.6522C174.054 26.0041 173.9 27.2434 173.593 28.3701C173.286 29.4762 172.825 30.4287 172.21 31.2276C171.616 32.0265 170.879 32.641 169.998 33.0712C169.117 33.5014 168.114 33.7164 166.987 33.7164C166.127 33.7164 165.358 33.5526 164.682 33.2248C164.006 32.8971 163.515 32.4567 163.208 31.9036L163.515 31.4734C163.761 31.9036 164.099 32.2518 164.529 32.5181C164.959 32.7844 165.471 32.9176 166.065 32.9176C167.048 32.9176 167.827 32.6001 168.4 31.965C168.974 31.3095 169.373 30.398 169.599 29.2304C169.844 28.0628 169.967 26.7108 169.967 25.1745C169.967 23.4743 169.855 22.1121 169.629 21.0879C169.404 20.0637 169.066 19.3263 168.615 18.8756C168.165 18.4045 167.632 18.1689 167.018 18.1689C166.178 18.1689 165.42 18.5069 164.744 19.1829C164.088 19.8384 163.689 20.8011 163.546 22.0712L163.33 21.2108C163.658 19.8589 164.283 18.8142 165.205 18.0767C166.127 17.3393 167.222 16.9706 168.492 16.9706Z" fill="white"/>
<path d="M179.762 33.5014C178.881 33.5014 178.134 33.3375 177.519 33.0097C176.905 32.6615 176.444 32.2006 176.136 31.6271C175.829 31.033 175.675 30.3775 175.675 29.6606C175.675 28.7797 175.88 28.0628 176.29 27.5097C176.7 26.9362 177.222 26.4855 177.857 26.1578C178.513 25.8095 179.199 25.5228 179.916 25.2974C180.633 25.0516 181.309 24.8263 181.944 24.6214C182.579 24.3961 183.101 24.1401 183.511 23.8533C183.92 23.5665 184.125 23.1875 184.125 22.7164V20.4734C184.125 19.8179 184.023 19.2853 183.818 18.8756C183.634 18.4454 183.347 18.1279 182.958 17.9231C182.589 17.6978 182.118 17.5851 181.544 17.5851C181.114 17.5851 180.663 17.6466 180.192 17.7695C179.721 17.8924 179.332 18.1279 179.025 18.4762C179.557 18.6196 179.967 18.8859 180.254 19.2751C180.561 19.6643 180.715 20.1354 180.715 20.6885C180.715 21.3235 180.5 21.8253 180.069 22.1941C179.66 22.5423 179.137 22.7164 178.502 22.7164C177.826 22.7164 177.314 22.5013 176.966 22.0712C176.618 21.641 176.444 21.1391 176.444 20.5656C176.444 19.992 176.587 19.5209 176.874 19.1522C177.161 18.763 177.56 18.4147 178.072 18.1075C178.584 17.7592 179.24 17.4827 180.039 17.2778C180.838 17.073 181.708 16.9706 182.65 16.9706C183.552 16.9706 184.351 17.073 185.047 17.2778C185.743 17.4622 186.338 17.8002 186.829 18.2918C187.321 18.763 187.638 19.3468 187.782 20.0432C187.925 20.7397 187.997 21.5898 187.997 22.5935V31.0125C187.997 31.5246 188.058 31.8934 188.181 32.1187C188.304 32.3235 188.499 32.4259 188.765 32.4259C188.97 32.4259 189.164 32.3747 189.349 32.2723C189.533 32.1699 189.738 32.0265 189.963 31.8421L190.301 32.3645C189.851 32.7127 189.379 32.9893 188.888 33.1941C188.396 33.3989 187.802 33.5014 187.106 33.5014C186.389 33.5014 185.815 33.3989 185.385 33.1941C184.975 32.9893 184.668 32.6922 184.463 32.303C184.279 31.9138 184.176 31.4529 184.156 30.9204C183.664 31.7397 183.06 32.3747 182.343 32.8254C181.626 33.276 180.766 33.5014 179.762 33.5014ZM181.606 31.7807C182.097 31.7807 182.548 31.6475 182.958 31.3812C183.388 31.115 183.777 30.7155 184.125 30.1829V23.9762C183.92 24.2835 183.623 24.56 183.234 24.8058C182.865 25.0516 182.466 25.2974 182.036 25.5432C181.606 25.789 181.196 26.0758 180.807 26.4036C180.438 26.7108 180.121 27.1 179.854 27.5712C179.608 28.0218 179.486 28.6056 179.486 29.3226C179.486 30.1215 179.68 30.736 180.069 31.1662C180.459 31.5758 180.971 31.7807 181.606 31.7807Z" fill="white"/>
<path d="M198.436 16.9706C199.194 16.9706 199.89 17.0628 200.525 17.2471C201.181 17.411 201.744 17.6466 202.215 17.9538C202.707 18.2611 203.096 18.6503 203.383 19.1214C203.67 19.5721 203.813 20.0739 203.813 20.627C203.813 21.303 203.608 21.8458 203.198 22.2555C202.789 22.6652 202.277 22.87 201.662 22.87C201.027 22.87 200.505 22.6857 200.095 22.317C199.706 21.9483 199.511 21.4566 199.511 20.8421C199.511 20.2481 199.685 19.7564 200.034 19.3672C200.382 18.978 200.802 18.722 201.293 18.5991C201.109 18.3328 200.822 18.1177 200.433 17.9538C200.044 17.7695 199.614 17.6773 199.143 17.6773C198.528 17.6773 197.975 17.8412 197.483 18.1689C196.992 18.4762 196.561 18.9473 196.193 19.5823C195.845 20.1969 195.568 20.965 195.363 21.8868C195.179 22.7881 195.087 23.8328 195.087 25.0209C195.087 26.6801 195.281 27.9911 195.67 28.9539C196.08 29.9166 196.602 30.6028 197.237 31.0125C197.872 31.4017 198.548 31.5963 199.265 31.5963C199.696 31.5963 200.156 31.5144 200.648 31.3505C201.14 31.1866 201.621 30.9101 202.092 30.5209C202.584 30.1317 203.024 29.5786 203.413 28.8617L203.997 29.0768C203.772 29.7937 203.403 30.5107 202.891 31.2276C202.4 31.9446 201.754 32.5386 200.955 33.0097C200.156 33.4809 199.183 33.7164 198.036 33.7164C196.725 33.7164 195.537 33.4194 194.472 32.8254C193.407 32.2109 192.557 31.2891 191.922 30.06C191.307 28.831 191 27.3049 191 25.4818C191 23.6792 191.318 22.1531 191.953 20.9036C192.588 19.6335 193.468 18.6605 194.595 17.9846C195.742 17.3086 197.022 16.9706 198.436 16.9706Z" fill="white"/>
<path d="M212.852 16.9706C214.654 16.9706 216.068 17.5134 217.092 18.5991C218.116 19.6847 218.628 21.4157 218.628 23.7918H208.273L208.243 23.208H215.064C215.105 22.2043 215.043 21.2825 214.879 20.4427C214.716 19.5823 214.449 18.8961 214.081 18.384C213.732 17.8719 213.271 17.6158 212.698 17.6158C211.919 17.6158 211.243 18.0767 210.67 18.9985C210.096 19.8998 209.738 21.3849 209.595 23.4538L209.717 23.6382C209.676 23.9045 209.646 24.1913 209.625 24.4985C209.625 24.8058 209.625 25.1131 209.625 25.4203C209.625 26.8337 209.83 28.0013 210.24 28.9231C210.649 29.8449 211.182 30.5209 211.838 30.9511C212.493 31.3812 213.169 31.5963 213.865 31.5963C214.337 31.5963 214.818 31.5246 215.31 31.3812C215.801 31.2379 216.283 30.9716 216.754 30.5824C217.225 30.1932 217.655 29.6401 218.044 28.9231L218.628 29.1689C218.403 29.8859 218.024 30.6028 217.491 31.3198C216.979 32.0163 216.313 32.5898 215.494 33.0405C214.675 33.4911 213.712 33.7164 212.606 33.7164C211.213 33.7164 209.984 33.4092 208.919 32.7947C207.853 32.1801 207.024 31.2686 206.43 30.06C205.836 28.831 205.539 27.3356 205.539 25.574C205.539 23.7099 205.846 22.1429 206.46 20.8728C207.095 19.6028 207.966 18.64 209.072 17.9846C210.178 17.3086 211.438 16.9706 212.852 16.9706Z" fill="white"/>
<path d="M21.9813 0C9.84012 0 0 9.93333 0 22.1895H43.9625C43.9625 9.93333 34.1184 0 21.9813 0Z" fill="white"/>
<path d="M41.5565 24.7568C41.5565 35.6553 32.7737 44.5172 21.9816 44.5172C11.1894 44.5172 2.40261 35.6512 2.40261 24.7568H0.000305176C0.000305176 36.9925 9.86068 46.9463 21.9816 46.9463C34.1025 46.9463 43.9628 36.9925 43.9628 24.7568H41.5605H41.5565Z" fill="white"/>
<path d="M21.9832 41.3889C31.0698 41.3889 38.4631 33.9256 38.4631 24.7529H36.0608C36.0608 32.5884 29.7451 38.9598 21.9873 38.9598C14.2294 38.9598 7.91375 32.5843 7.91375 24.7529H5.51144C5.51144 33.9256 12.9047 41.3889 21.9913 41.3889H21.9832Z" fill="white"/>
</svg>
