<svg width="198" height="47" viewBox="0 0 198 47" fill="none" xmlns="http://www.w3.org/2000/svg">
<path d="M0 0C13.2867 0 24.0706 10.7839 24.0706 24.0706V46.9429C10.7839 46.9429 0 36.159 0 22.8724V0Z" fill="white"/>
<path d="M26.1821 27.4812V15.3314C26.1821 6.86621 33.0483 0 41.5176 0V12.1498C41.5176 20.6191 34.6513 27.4853 26.1821 27.4853V27.4812Z" fill="white"/>
<path d="M26.1821 29.8652H43.7668C53.193 29.8652 60.8443 37.5166 60.8443 46.9428H43.2597C33.8335 46.9428 26.1821 39.2914 26.1821 29.8652Z" fill="white"/>
<path d="M96.7934 34.9938H91.5123L85.7661 25.7518L83.8007 27.1621V34.9938H79.1497V13.0592H83.8007V23.0963L85.6311 20.5158L91.5723 13.0592H96.7334L89.0818 22.7662L96.7934 34.9938Z" fill="white"/>
<path d="M98.3843 13.8844C98.3843 12.3941 99.2145 11.6489 100.875 11.6489C102.535 11.6489 103.365 12.3941 103.365 13.8844C103.365 14.5945 103.155 15.1497 102.735 15.5497C102.325 15.9398 101.705 16.1349 100.875 16.1349C99.2145 16.1349 98.3843 15.3847 98.3843 13.8844ZM103.155 34.9938H98.5793V18.2203H103.155V34.9938Z" fill="white"/>
<path d="M114.423 31.6481C115.223 31.6481 116.184 31.473 117.304 31.123V34.5287C116.164 35.0388 114.763 35.2938 113.103 35.2938C111.273 35.2938 109.937 34.8337 109.097 33.9135C108.267 32.9833 107.852 31.5931 107.852 29.7427V21.656H105.661V19.7206L108.182 18.1903L109.502 14.6495H112.428V18.2203H117.124V21.656H112.428V29.7427C112.428 30.3928 112.608 30.8729 112.968 31.183C113.338 31.493 113.823 31.6481 114.423 31.6481Z" fill="white"/>
<path d="M141.819 34.9938H136.523L133.553 23.4714C133.443 23.0613 133.253 22.2161 132.983 20.9358C132.723 19.6456 132.573 18.7804 132.533 18.3403C132.473 18.8804 132.323 19.7506 132.082 20.9509C131.842 22.1411 131.657 22.9913 131.527 23.5014L128.572 34.9938H123.291L117.694 13.0592H122.27L125.076 25.0317C125.566 27.2422 125.921 29.1575 126.141 30.7779C126.201 30.2078 126.336 29.3276 126.546 28.1373C126.766 26.9371 126.971 26.0069 127.161 25.3468L130.357 13.0592H134.753L137.949 25.3468C138.089 25.8969 138.264 26.737 138.474 27.8673C138.684 28.9975 138.844 29.9677 138.954 30.7779C139.054 29.9977 139.214 29.0275 139.434 27.8673C139.654 26.697 139.854 25.7518 140.034 25.0317L142.825 13.0592H147.401L141.819 34.9938Z" fill="white"/>
<path d="M152.832 26.577C152.832 28.2374 153.102 29.4926 153.643 30.3428C154.193 31.193 155.083 31.6181 156.313 31.6181C157.533 31.6181 158.409 31.198 158.939 30.3578C159.479 29.5076 159.749 28.2474 159.749 26.577C159.749 24.9167 159.479 23.6714 158.939 22.8412C158.399 22.0111 157.513 21.596 156.283 21.596C155.063 21.596 154.183 22.0111 153.643 22.8412C153.102 23.6614 152.832 24.9067 152.832 26.577ZM164.43 26.577C164.43 29.3076 163.71 31.443 162.269 32.9833C160.829 34.5237 158.824 35.2938 156.253 35.2938C154.643 35.2938 153.222 34.9437 151.992 34.2436C150.762 33.5335 149.817 32.5182 149.157 31.198C148.496 29.8777 148.166 28.3374 148.166 26.577C148.166 23.8364 148.882 21.706 150.312 20.1857C151.742 18.6654 153.753 17.9052 156.343 17.9052C157.953 17.9052 159.374 18.2553 160.604 18.9554C161.834 19.6556 162.779 20.6608 163.44 21.9711C164.1 23.2813 164.43 24.8167 164.43 26.577Z" fill="white"/>
<path d="M176.958 17.9052C177.578 17.9052 178.093 17.9502 178.503 18.0402L178.158 22.3311C177.788 22.2311 177.338 22.1811 176.808 22.1811C175.348 22.1811 174.207 22.5562 173.387 23.3063C172.577 24.0565 172.172 25.1067 172.172 26.457V34.9938H167.596V18.2203H171.062L171.737 21.0409H171.962C172.482 20.1007 173.182 19.3455 174.062 18.7754C174.953 18.1953 175.918 17.9052 176.958 17.9052Z" fill="white"/>
<path d="M185.33 25.8719L187.326 23.3213L192.022 18.2203H197.183L190.521 25.4968L197.588 34.9938H192.307L187.476 28.1973L185.51 29.7727V34.9938H180.934V11.6489H185.51V22.0611L185.27 25.8719H185.33Z" fill="white"/>
</svg>
