<svg width="23" height="27" viewBox="0 0 23 27" fill="none" xmlns="http://www.w3.org/2000/svg">
<path d="M20.1028 6.61182C20.1028 6.61182 19.4913 6.93762 19.4587 7.10052C18.4161 12.5741 15.3135 14.0757 10.6545 14.0757L8.27615 14.0381C7.68973 14.0381 6.88798 14.8547 6.79026 15.4085L5.56087 22.5664L5.89776 23.1301L5.57195 25.3455C5.50677 25.6713 5.73485 25.9971 6.09325 26.0297C6.12584 26.0297 6.15843 26.0297 6.19097 26.0297H10.3938C10.8825 26.0297 11.3061 25.6713 11.4038 25.1826L11.4364 24.9546C11.4364 24.9546 12.2173 19.9442 12.2183 19.9372C12.3101 19.3489 12.6348 18.8295 13.2935 18.8295H13.9125C17.985 18.8295 21.1779 17.1679 22.1228 12.3785C22.5138 10.3911 22.3183 8.6969 21.2757 7.52405C20.9499 7.13306 20.5589 6.83985 20.1028 6.61182Z" fill="#CCCCCC"/>
<path d="M19.1077 5.55371C18.0812 5.22272 16.9664 5.1792 15.8958 5.1792H9.54264C9.05393 5.1792 8.19915 5.82211 8.10138 6.31082L6.6615 15.1485L7.16424 15.4091C7.26196 14.8552 7.75066 14.4317 8.30455 14.4317H10.6829C15.3419 14.4317 18.9704 12.5485 20.0455 7.07499C20.0781 6.91209 20.0979 6.78991 20.1312 6.61237C20.1312 6.61237 19.79 5.84464 19.5116 5.70273C19.3821 5.64818 19.2466 5.5985 19.1077 5.55371Z" fill="white"/>
<path d="M8.53141 6.64639C8.59659 6.15768 9.02012 5.79929 9.54142 5.79929H15.862C16.6113 5.79929 17.3281 5.86447 17.9471 5.96219C18.3707 6.02737 18.7942 6.12509 19.2178 6.2554C19.5436 6.35312 19.8368 6.48349 20.0975 6.6138C20.4233 4.59379 20.0974 3.22545 18.9897 1.95477C17.8168 0.586427 15.6339 0 12.832 0H4.75208C4.19819 0 3.70948 0.423525 3.61176 0.977412L0.223363 22.3502C0.158182 22.7411 0.418855 23.0995 0.809789 23.1321C0.84238 23.1321 0.87497 23.1321 0.90751 23.1321H5.89234L7.16297 15.1825L8.53141 6.64639Z" fill="white"/>
</svg>
