<svg width="24" height="25" viewBox="0 0 24 25" fill="none" xmlns="http://www.w3.org/2000/svg">
<path d="M23.7448 17.8031C23.5544 17.3686 23.2401 16.9988 22.8232 16.7104C22.1446 16.2722 18.8869 13.7919 18.1889 13.5691C17.3818 13.24 16.5582 13.3167 15.948 13.6939C15.6134 13.8677 15.2769 14.1256 14.9274 14.4769L14.2073 15.1906C12.4545 14.0896 9.99639 11.6324 8.81032 9.7918L9.51937 9.05501C9.84663 8.72776 10.1073 8.39588 10.2765 8.09451C10.5206 7.6933 10.6435 7.26712 10.6435 6.82616C10.6435 6.49336 10.5668 6.14391 10.4189 5.79724C10.1841 5.09928 7.74072 1.89605 7.30623 1.21935C7.02242 0.80982 6.6471 0.494582 6.20243 0.290278C5.80584 0.0998408 5.35656 0 4.9045 0C3.82474 0 2.83003 0.44004 1.96289 1.29516C-0.473038 3.57393 -0.400006 6.97037 0.870192 9.94988C3.40412 15.5068 8.50247 20.6107 14.0825 23.152C17.5224 24.7485 21.8959 24.2798 23.6339 20.644C23.877 20.129 24 19.5901 24 19.04C24 18.637 23.9205 18.2413 23.7448 17.8031V17.8031ZM21.9616 19.8545C20.5536 22.5372 17.6388 22.6685 14.8063 21.4519C9.65989 19.0899 4.92761 14.3531 2.57303 9.23066C1.62177 6.93155 1.36847 4.39762 3.24511 2.62545C3.77667 2.10313 4.31933 1.84891 4.9045 1.84891C5.24655 1.85168 5.59415 1.98757 5.79198 2.28062C6.05637 2.69386 8.60509 6.13652 8.71325 6.51184C8.83528 6.85944 8.82788 6.86591 8.68182 7.15896C8.48768 7.52782 7.70467 8.25536 7.39683 8.59649C6.87081 9.07813 6.7682 9.86946 7.15462 10.6423C8.59492 12.8822 11.1566 15.4698 13.3337 16.8204C13.9512 17.1828 14.8673 17.2142 15.3823 16.6254C15.7067 16.3203 16.5101 15.4448 16.8577 15.3025C17.1831 15.1037 17.2728 15.1925 17.49 15.2803C17.833 15.3589 21.3856 17.9843 21.7628 18.2256C22.128 18.4918 22.1178 18.7082 22.152 19.04C22.1511 19.3146 22.0873 19.5882 21.9616 19.8545V19.8545Z" fill="#911E4F"/>
</svg>
