<svg width="16" height="16" viewBox="0 0 16 16" fill="none" xmlns="http://www.w3.org/2000/svg">
<path d="M15.9581 5.79342C15.8528 5.46944 15.5654 5.24007 15.2268 5.20943L10.6081 4.79011L8.78274 0.516609C8.64797 0.20264 8.34132 0 8.00001 0C7.6587 0 7.35193 0.20264 7.21802 0.516609L5.39267 4.79011L0.773215 5.20943C0.434587 5.24068 0.147839 5.47005 0.0418804 5.79342C-0.0634679 6.1174 0.0338237 6.47275 0.289931 6.69737L3.78132 9.75881L2.75188 14.2928C2.67656 14.6262 2.80596 14.9709 3.08258 15.1709C3.23126 15.2789 3.40595 15.3329 3.58124 15.3329C3.73188 15.3329 3.88264 15.2928 4.01728 15.2123L8.00001 12.8309L11.982 15.2123C12.2741 15.3868 12.6414 15.3708 12.9174 15.1709C13.1941 14.9709 13.3235 14.6262 13.2481 14.2928L12.2187 9.75881L15.7101 6.69737C15.9661 6.47275 16.0635 6.11813 15.9581 5.79342Z" fill="#911E4F"/>
</svg>
