<svg width="16" height="16" viewBox="0 0 16 16" fill="none" xmlns="http://www.w3.org/2000/svg">
<path d="M3.58114 15.3331C3.40584 15.3331 3.23176 15.2785 3.0832 15.171C2.80646 14.9705 2.67718 14.6257 2.7525 14.2931L3.78182 9.75891L0.291016 6.69755C0.0344181 6.47355 -0.0636068 6.1188 0.0417425 5.79421C0.147092 5.47023 0.43372 5.24085 0.773084 5.20948L5.39185 4.79016L7.21795 0.516736C7.35259 0.202764 7.65924 0 7.99995 0C8.34065 0 8.6473 0.202764 8.78195 0.516004L10.608 4.79016L15.2261 5.20948C15.5662 5.24012 15.8528 5.47023 15.9582 5.79421C16.0635 6.11819 15.9661 6.47355 15.7095 6.69755L12.2187 9.7583L13.248 14.2923C13.3234 14.6257 13.194 14.9705 12.9174 15.1704C12.6414 15.3704 12.2734 15.3858 11.9827 15.2111L7.99995 12.831L4.01718 15.2124C3.88254 15.2924 3.73251 15.3331 3.58114 15.3331ZM7.99995 11.8057C8.15132 11.8057 8.30122 11.8464 8.43599 11.9263L12.1948 14.1744L11.2233 9.8949C11.154 9.59032 11.2574 9.27232 11.4927 9.06626L14.7888 6.17557L10.428 5.77956C10.114 5.75087 9.84399 5.55348 9.7213 5.26417L7.99995 1.23135L6.27652 5.26478C6.15517 5.55214 5.88515 5.74953 5.57191 5.77822L1.21047 6.17422L4.50645 9.06492C4.74254 9.27159 4.84582 9.58898 4.77587 9.89429L3.80514 14.1737L7.5639 11.9263C7.69855 11.8464 7.84858 11.8057 7.99995 11.8057ZM5.35657 4.8728C5.35657 4.8728 5.35657 4.87353 5.35584 4.87414L5.35657 4.8728ZM10.642 4.87085L10.6427 4.87219C10.6427 4.87146 10.6427 4.87146 10.642 4.87085Z" fill="#911E4F"/>
</svg>
