<svg width="23" height="22" viewBox="0 0 23 22" fill="none" xmlns="http://www.w3.org/2000/svg">
<path d="M5.13822 22C4.8867 22 4.63693 21.9215 4.42378 21.7674C4.02671 21.4796 3.84122 20.985 3.94929 20.5077L5.42616 14.0021L0.41755 9.60965C0.0493831 9.28825 -0.091263 8.77926 0.0598922 8.31354C0.211047 7.84869 0.622302 7.51958 1.10922 7.47456L7.73623 6.87292L10.3563 0.741414C10.5495 0.290926 10.9895 0 11.4783 0C11.9672 0 12.4072 0.290926 12.6003 0.740363L15.2204 6.87292L21.8464 7.47456C22.3344 7.51853 22.7456 7.84869 22.8968 8.31354C23.0479 8.77839 22.9081 9.28825 22.54 9.60965L17.5314 14.0012L19.0082 20.5067C19.1165 20.985 18.9308 21.4796 18.5339 21.7665C18.1379 22.0534 17.6098 22.0755 17.1928 21.8248L11.4783 18.4099L5.76385 21.8268C5.57066 21.9415 5.3554 22 5.13822 22ZM11.4783 16.9388C11.6955 16.9388 11.9106 16.9972 12.104 17.1119L17.497 20.3375L16.1032 14.1972C16.0037 13.7602 16.1521 13.3039 16.4897 13.0083L21.219 8.86071L14.9621 8.29252C14.5116 8.25136 14.1242 7.96814 13.9481 7.55303L11.4783 1.76675L9.00555 7.55391C8.83145 7.96621 8.44401 8.24943 7.99458 8.29059L1.73679 8.85878L6.46586 13.0064C6.8046 13.3029 6.95278 13.7583 6.85242 14.1963L5.45962 20.3364L10.8527 17.1119C11.0459 16.9972 11.2611 16.9388 11.4783 16.9388ZM7.68561 6.9915C7.68561 6.9915 7.68561 6.99255 7.68456 6.99342L7.68561 6.9915ZM15.2691 6.98869L15.2702 6.99062C15.2702 6.98957 15.2702 6.98957 15.2691 6.98869Z" fill="#911E4F"/>
</svg>
