<svg width="22" height="22" viewBox="0 0 22 22" fill="none" xmlns="http://www.w3.org/2000/svg">
<circle cx="11" cy="11" r="11" fill="#911E4F"/>
<path d="M9.22883 14.6923C9.08828 14.6924 8.94911 14.6629 8.81927 14.6055C8.68943 14.5482 8.57149 14.4641 8.47219 14.3582L6.18461 11.9214C6.0664 11.7954 6 11.6246 6 11.4464C6 11.2683 6.0664 11.0974 6.18461 10.9714C6.30285 10.8454 6.4632 10.7747 6.6304 10.7747C6.79759 10.7747 6.95794 10.8454 7.07619 10.9714L9.22883 13.2652L14.9238 7.19672C15.0421 7.07076 15.2024 7 15.3696 7C15.5368 7 15.6971 7.07076 15.8154 7.19672C15.9336 7.32272 16 7.49358 16 7.67175C16 7.84991 15.9336 8.02077 15.8154 8.14677L9.98547 14.3582C9.88617 14.4641 9.76823 14.5482 9.63839 14.6055C9.50855 14.6629 9.36938 14.6924 9.22883 14.6923Z" fill="white"/>
</svg>
