<svg width="15" height="11" viewBox="0 0 15 11" fill="none" xmlns="http://www.w3.org/2000/svg">
<path d="M4.84325 10.8283C4.63243 10.8284 4.42366 10.7869 4.22891 10.7061C4.03415 10.6254 3.85723 10.5071 3.70828 10.3579L0.276918 6.92779C0.0996074 6.75043 0 6.5099 0 6.25911C0 6.00832 0.0996074 5.76779 0.276918 5.59043C0.454282 5.41312 0.694807 5.31351 0.945599 5.31351C1.19639 5.31351 1.43692 5.41312 1.61428 5.59043L4.84325 8.81939L13.3857 0.276918C13.5631 0.0996075 13.8036 0 14.0544 0C14.3052 0 14.5457 0.0996075 14.7231 0.276918C14.9004 0.454282 15 0.694807 15 0.945599C15 1.19639 14.9004 1.43692 14.7231 1.61428L5.97821 10.3579C5.82926 10.5071 5.65234 10.6254 5.45758 10.7061C5.26283 10.7869 5.05406 10.8284 4.84325 10.8283Z" fill="#911E4F"/>
</svg>
