<svg width="23" height="19" viewBox="0 0 23 19" fill="none" xmlns="http://www.w3.org/2000/svg">
<path d="M22.5771 2.17164C21.7375 2.53993 20.8429 2.78404 19.9102 2.90257C20.8697 2.32968 21.6021 1.42941 21.9464 0.344301C21.0518 0.877686 20.064 1.25444 19.0113 1.46469C18.1619 0.560195 16.9512 0 15.6304 0C13.0679 0 11.0049 2.07992 11.0049 4.62972C11.0049 4.9966 11.036 5.34937 11.1122 5.6852C7.26419 5.49753 3.85928 3.65326 1.57193 0.84382C1.1726 1.53666 0.938362 2.32968 0.938362 3.18337C0.938362 4.78635 1.76384 6.2073 2.99429 7.02995C2.25066 7.01584 1.52113 6.79995 0.903085 6.45988C0.903085 6.47399 0.903085 6.49233 0.903085 6.51068C0.903085 8.75992 2.50747 10.6282 4.61138 11.0586C4.23462 11.1616 3.824 11.211 3.39786 11.211C3.10153 11.211 2.80239 11.194 2.52158 11.1319C3.12129 12.9649 4.82304 14.3125 6.84651 14.3562C5.27176 15.5881 3.27227 16.3303 1.10769 16.3303C0.728112 16.3303 0.364056 16.3134 0 16.2668C2.05028 17.589 4.48015 18.3439 7.1005 18.3439C15.6177 18.3439 20.2743 11.2886 20.2743 5.17298C20.2743 4.96838 20.2672 4.77083 20.2573 4.57469C21.1759 3.92278 21.9478 3.10859 22.5771 2.17164Z" fill="white"/>
</svg>
