<svg width="42" height="27" viewBox="0 0 42 27" fill="none" xmlns="http://www.w3.org/2000/svg">
<path d="M41.2832 24.5004C41.2832 25.3466 40.598 26.0318 39.7517 26.0318H1.53113C0.685464 26.0318 0 25.3466 0 24.5004V1.53137C0 0.685705 0.685464 0 1.53113 0H39.7518C40.598 0 41.2833 0.685705 41.2833 1.53137V24.5004H41.2832Z" fill="white"/>
<path d="M15.6494 7.52888L11.056 18.4898H8.05792L5.7991 9.7433C5.66001 9.20386 5.54114 9.00763 5.12419 8.7786C4.44122 8.40928 3.3177 8.06284 2.32568 7.84711L2.39507 7.52896H7.21862C7.83381 7.52896 8.38687 7.9393 8.52596 8.64669L9.72033 14.9906L12.6704 7.52896H15.6494V7.52888ZM27.3931 14.9094C27.4064 12.0182 23.3924 11.8608 23.4212 10.5673C23.429 10.1725 23.8033 9.75466 24.6228 9.64917C25.0298 9.59502 26.1498 9.55537 27.4192 10.1381L27.9167 7.81488C27.2337 7.567 26.3558 7.32959 25.2647 7.32959C22.4623 7.32959 20.4894 8.82019 20.4728 10.953C20.4544 12.5302 21.8803 13.4103 22.9559 13.9355C24.0603 14.473 24.4296 14.8162 24.4257 15.2982C24.4185 16.0338 23.5445 16.3554 22.7294 16.3698C21.3035 16.392 20.4764 15.9844 19.816 15.6768L19.3026 18.08C19.9642 18.3837 21.1891 18.6475 22.4568 18.663C25.4351 18.6629 27.3836 17.1882 27.3931 14.9094ZM34.7936 18.4897H37.4167L35.1279 7.5288H32.7063C32.1622 7.5288 31.7035 7.84615 31.4992 8.33224L27.247 18.4896H30.2232L30.8139 16.8527H34.452L34.7936 18.4897ZM31.6296 14.6063L33.1227 10.4907L33.9817 14.6063H31.6296ZM19.7015 7.52888L17.3555 18.4897H14.5195L16.8661 7.5288H19.7015V7.52888Z" fill="#911E4F"/>
</svg>
