<svg width="17" height="16" viewBox="0 0 17 16" fill="none" xmlns="http://www.w3.org/2000/svg">
<path d="M4.06311 15.972C3.88051 15.972 3.69918 15.9151 3.54443 15.8032C3.25616 15.5942 3.1215 15.2351 3.19995 14.8886L4.27216 10.1655L0.635906 6.97662C0.368616 6.74328 0.266507 6.37375 0.376245 6.03563C0.485984 5.69815 0.784555 5.45922 1.13806 5.42654L5.94927 4.98975L7.85146 0.538267C7.99171 0.211212 8.31114 0 8.66604 0C9.02094 0 9.34037 0.211212 9.48063 0.537504L11.3828 4.98975L16.1933 5.42654C16.5475 5.45846 16.8461 5.69815 16.9558 6.03563C17.0656 6.37312 16.9641 6.74328 16.6968 6.97662L13.0606 10.1649L14.1328 14.8879C14.2113 15.2351 14.0766 15.5942 13.7884 15.8025C13.5009 16.0108 13.1175 16.0268 12.8148 15.8449L8.66604 13.3656L4.51733 15.8463C4.37707 15.9296 4.22079 15.972 4.06311 15.972ZM8.66604 12.2976C8.82372 12.2976 8.97987 12.34 9.12025 12.4232L13.0356 14.765L12.0237 10.3072C11.9515 9.98992 12.0592 9.65867 12.3043 9.44402L15.7378 6.43288L11.1952 6.02038C10.8682 5.99049 10.5869 5.78488 10.4591 5.48351L8.66604 1.28266L6.8708 5.48414C6.7444 5.78348 6.46313 5.98909 6.13683 6.01898L1.59367 6.43148L5.02698 9.44263C5.27291 9.65791 5.38049 9.98852 5.30763 10.3065L4.29645 14.7643L8.21183 12.4232C8.35208 12.34 8.50836 12.2976 8.66604 12.2976ZM5.91252 5.07583C5.91252 5.07583 5.91252 5.0766 5.91176 5.07723L5.91252 5.07583ZM11.4182 5.0738L11.4189 5.0752C11.4189 5.07443 11.4189 5.07443 11.4182 5.0738Z" fill="white"/>
</svg>
