<svg width="17" height="16" viewBox="0 0 17 16" fill="none" xmlns="http://www.w3.org/2000/svg">
<path d="M16.6231 6.03482C16.5133 5.69734 16.214 5.45841 15.8613 5.42649L11.0501 4.9897L9.14868 0.538135C9.0083 0.211083 8.68888 0 8.33334 0C7.97781 0 7.65826 0.211083 7.51877 0.538135L5.61736 4.9897L0.805432 5.42649C0.452694 5.45904 0.153999 5.69797 0.0436255 6.03482C-0.0661123 6.37229 0.035233 6.74245 0.302012 6.97642L3.93887 10.1654L2.86654 14.8884C2.78809 15.2356 2.92288 15.5947 3.21102 15.803C3.3659 15.9155 3.54786 15.9717 3.73046 15.9717C3.88737 15.9717 4.04441 15.93 4.18467 15.8461L8.33334 13.3655L12.4813 15.8461C12.7855 16.0279 13.1682 16.0113 13.4557 15.803C13.7438 15.5947 13.8786 15.2356 13.8001 14.8884L12.7278 10.1654L16.3647 6.97642C16.6313 6.74245 16.7328 6.37306 16.6231 6.03482Z" fill="white"/>
</svg>
