<svg width="23" height="23" viewBox="0 0 23 23" fill="none" xmlns="http://www.w3.org/2000/svg">
<path d="M22.2333 21.0183V8.87656C22.2333 7.96193 21.4897 7.21826 20.575 7.21826H16.1V1.64919C16.1 1.58326 16.0854 0.754491 15.3648 0.271491C14.6441 -0.210742 13.8721 0.0913244 13.8107 0.115858L2.5599 4.74882C1.9366 5.00566 1.53333 5.60673 1.53333 6.28216V21.0183H0.766667C0.343467 21.0183 0 21.3617 0 21.7849C0 22.2081 0.343467 22.5516 0.766667 22.5516H2.3H15.3333H21.4667H22.2333C22.6565 22.5516 23 22.2081 23 21.7849C23 21.3617 22.6565 21.0183 22.2333 21.0183ZM3.06667 6.28216C3.06667 6.23156 3.09733 6.18632 3.1441 6.16716L14.3949 1.53496C14.4371 1.51809 14.4754 1.52192 14.5115 1.54646C14.5483 1.57022 14.5667 1.60472 14.5667 1.64919V7.98493V21.0183H3.06667V6.28216ZM16.1 21.0183V8.75159H20.575C20.644 8.75159 20.7 8.80756 20.7 8.87656V21.0183H16.1Z" fill="#911E4F"/>
<path d="M10.7334 17.1851H6.90009C6.47689 17.1851 6.13342 17.5285 6.13342 17.9517C6.13342 18.3749 6.47689 18.7184 6.90009 18.7184H10.7334C11.1566 18.7184 11.5001 18.3749 11.5001 17.9517C11.5001 17.5285 11.1566 17.1851 10.7334 17.1851Z" fill="#911E4F"/>
<path d="M10.7334 14.1182H6.90009C6.47689 14.1182 6.13342 14.4616 6.13342 14.8848C6.13342 15.308 6.47689 15.6515 6.90009 15.6515H10.7334C11.1566 15.6515 11.5001 15.308 11.5001 14.8848C11.5001 14.4616 11.1566 14.1182 10.7334 14.1182Z" fill="#911E4F"/>
<path d="M10.7334 11.0518H6.90009C6.47689 11.0518 6.13342 11.3952 6.13342 11.8184C6.13342 12.2416 6.47689 12.5851 6.90009 12.5851H10.7334C11.1566 12.5851 11.5001 12.2416 11.5001 11.8184C11.5001 11.3952 11.1566 11.0518 10.7334 11.0518Z" fill="#911E4F"/>
<path d="M10.7334 7.98486H6.90009C6.47689 7.98486 6.13342 8.32833 6.13342 8.75153C6.13342 9.17473 6.47689 9.5182 6.90009 9.5182H10.7334C11.1566 9.5182 11.5001 9.17473 11.5001 8.75153C11.5001 8.32833 11.1566 7.98486 10.7334 7.98486Z" fill="#911E4F"/>
</svg>
